<?xml version="1.0" standalone="no"?>
<!DOCTYPE svg PUBLIC "-//W3C//DTD SVG 20010904//EN"
 "http://www.w3.org/TR/2001/REC-SVG-20010904/DTD/svg10.dtd">
<svg version="1.0" xmlns="http://www.w3.org/2000/svg"
 width="3840.000000pt" height="2400.000000pt" viewBox="0 0 3840.000000 2400.000000"
 preserveAspectRatio="xMidYMid meet">

<g transform="translate(0.000000,2400.000000) scale(0.100000,-0.100000)"
fill="#000000" stroke="none">
<path d="M0 12000 l0 -12000 10374 0 c9871 0 10374 1 10380 17 14 39 40 77 43
66 4 -10 12 -9 34 3 23 11 29 20 24 35 -4 13 -2 19 9 19 12 0 16 -10 16 -41 0
-22 4 -38 9 -35 5 4 9 25 9 49 -1 36 -5 45 -26 55 -22 10 -28 9 -47 -14 -24
-28 -45 -25 -45 7 0 14 7 19 25 19 18 0 26 7 31 25 11 42 -3 75 -31 75 -28 0
-31 10 -13 42 28 48 80 74 91 46 4 -10 8 -10 14 -2 4 6 18 14 29 18 16 5 20
12 17 26 -3 11 0 20 6 20 6 0 11 -11 11 -25 0 -18 7 -26 25 -31 22 -5 25 -11
23 -38 -3 -30 -1 -31 34 -31 43 0 55 -9 38 -30 -10 -12 -16 -13 -26 -4 -20 16
-44 3 -44 -23 0 -20 5 -23 39 -22 22 0 47 7 57 15 9 8 19 13 21 12 1 -2 10 -3
19 -3 12 0 15 6 10 26 -6 24 -5 26 17 22 20 -4 23 -1 19 14 -7 29 -19 31 -43
7 -21 -21 -23 -21 -36 -4 -17 24 -17 35 0 35 17 0 52 38 44 47 -4 3 1 15 10
25 14 16 15 23 5 38 -7 11 -12 47 -12 80 0 56 3 64 35 97 39 40 42 38 21 -12
-20 -47 -31 -145 -17 -145 6 0 11 -9 11 -20 0 -10 9 -24 20 -30 15 -8 19 -17
15 -31 -7 -22 3 -24 28 -5 12 9 14 16 8 21 -6 3 -11 18 -11 33 0 23 5 28 26
30 36 3 60 22 42 33 -28 18 -68 10 -78 -15 -12 -31 -25 -39 -39 -22 -8 10 -5
22 13 49 14 20 21 39 16 42 -13 8 -13 25 0 25 6 0 10 -7 10 -15 0 -8 6 -15 13
-15 15 0 57 53 57 71 0 7 10 3 23 -9 13 -12 37 -27 55 -33 36 -12 42 -34 12
-44 -11 -3 -20 -10 -20 -15 0 -5 -9 -11 -19 -15 -27 -8 -32 -39 -10 -53 25
-16 29 -15 29 4 0 8 13 27 29 42 20 19 29 37 29 60 1 28 -3 34 -28 38 -16 4
-30 14 -33 25 -3 10 -12 19 -20 19 -13 0 -36 58 -25 63 1 1 21 11 43 22 22 10
42 20 44 22 2 1 -2 9 -8 17 -9 11 -10 20 -2 33 6 10 11 12 11 6 0 -7 4 -13 10
-13 5 0 7 7 4 15 -4 10 0 15 11 15 11 0 15 -7 13 -21 -4 -30 29 -51 43 -26 13
22 25 22 51 -3 18 -17 19 -20 5 -26 -9 -3 -21 -3 -27 1 -5 3 -10 0 -10 -9 0
-8 -16 -20 -35 -26 -19 -6 -35 -18 -35 -26 0 -18 20 -18 47 1 12 8 32 14 45
13 13 -2 22 2 21 9 -1 6 12 15 30 18 17 4 42 14 55 22 19 11 21 17 11 29 -16
20 -37 17 -44 -6 -3 -11 -13 -20 -21 -20 -8 0 -14 9 -14 20 0 11 5 20 10 20 6
0 10 6 10 14 0 21 11 26 85 35 62 7 66 6 81 -17 18 -27 12 -41 -11 -22 -12 10
-21 10 -45 0 -37 -16 -39 -30 -2 -31 15 -1 42 -2 60 -4 25 -2 32 1 32 15 0 10
9 22 20 25 24 8 26 31 4 43 -13 7 -14 13 -5 31 7 11 16 21 21 21 16 0 23 -22
10 -30 -10 -6 -8 -10 6 -18 23 -11 87 15 92 38 5 23 29 43 41 36 6 -4 11 -18
11 -32 0 -19 -5 -24 -24 -24 -24 0 -56 -23 -56 -41 0 -16 25 -10 43 11 22 26
27 25 60 -6 16 -14 31 -24 33 -21 8 7 -33 47 -48 47 -18 0 23 26 52 33 19 5
30 0 46 -21 12 -15 26 -23 30 -19 5 4 2 12 -5 17 -8 4 -11 15 -7 25 6 15 10
14 40 -9 39 -29 56 -33 56 -12 0 18 -38 46 -61 46 -9 0 -22 7 -29 15 -14 17
-50 20 -50 5 0 -5 -11 -10 -24 -10 -14 0 -28 5 -31 10 -3 6 -1 10 4 10 20 0
11 32 -9 37 -11 3 -20 9 -20 14 0 15 32 10 52 -8 16 -14 18 -14 18 -1 0 9 -7
21 -15 28 -11 9 -12 17 -4 31 14 26 28 24 39 -6 8 -22 13 -24 30 -15 18 10 20
8 20 -25 0 -25 4 -35 15 -35 12 0 15 9 12 35 -6 50 19 46 43 -7 13 -29 16 -47
9 -59 -8 -16 -5 -18 24 -16 18 1 47 12 64 25 35 24 56 13 30 -16 -7 -9 -17
-25 -20 -34 -4 -10 -12 -15 -21 -12 -8 3 -17 1 -20 -5 -4 -5 4 -13 16 -17 17
-5 26 0 42 22 47 64 75 85 115 86 47 0 62 -7 54 -27 -3 -8 0 -15 6 -15 6 0 11
4 11 9 0 13 52 24 59 12 4 -6 12 -6 21 -1 13 8 12 12 -5 24 -11 9 -28 16 -37
16 -20 0 -24 20 -7 37 13 13 4 33 -17 33 -15 0 -17 -8 -14 -52 2 -38 -29 -37
-72 2 -30 27 -31 29 -11 30 31 0 35 13 12 34 -23 19 -41 13 -32 -12 6 -15 3
-14 -16 3 -19 16 -24 17 -32 5 -6 -11 -3 -19 11 -29 21 -14 27 -55 10 -66 -5
-3 -10 -2 -10 3 0 5 -10 12 -21 15 -15 4 -20 11 -16 21 4 9 2 16 -3 16 -5 0
-12 -11 -16 -24 -7 -28 -38 -60 -53 -55 -7 3 -3 21 11 47 11 24 17 47 12 50
-5 4 -15 19 -23 34 -8 15 -21 29 -30 31 -14 3 -14 5 1 11 13 6 27 -1 49 -23
34 -35 54 -40 47 -13 -4 13 7 24 43 42 l48 23 19 -23 c17 -21 22 -23 36 -11 9
8 16 24 14 35 -2 16 -9 20 -29 18 -17 -1 -29 3 -33 14 -4 12 -2 15 9 10 8 -3
15 0 15 6 0 7 4 7 13 -1 17 -13 27 -5 27 22 0 21 26 46 48 47 20 0 14 -28 -8
-35 -23 -7 -25 -32 -5 -59 13 -17 12 -22 -5 -44 -15 -19 -17 -28 -9 -38 9 -11
15 -10 35 3 13 8 24 21 24 29 0 22 20 27 39 10 10 -9 24 -16 32 -16 20 1 49
25 49 41 0 11 2 11 13 0 10 -10 8 -16 -10 -28 -24 -16 -30 -38 -14 -48 5 -3
16 1 23 9 8 7 23 16 34 20 17 5 22 0 30 -30 5 -21 18 -42 29 -48 11 -6 32 -19
46 -28 28 -19 67 -18 134 1 54 15 68 25 63 46 -4 21 -38 30 -38 9 0 -23 -45
-46 -75 -38 -34 8 -42 29 -21 53 18 20 21 41 6 41 -22 0 -8 19 20 29 25 8 32
7 37 -4 7 -20 33 -19 33 1 0 9 -9 18 -20 21 -11 3 -20 9 -20 14 0 5 -13 9 -30
9 -37 0 -38 8 -3 35 28 23 25 45 -8 45 -10 0 -19 4 -19 9 0 10 59 21 78 14 17
-7 15 -34 -5 -48 -19 -14 -10 -35 16 -35 18 0 91 74 91 91 0 5 19 9 43 9 24 0
48 5 55 12 6 6 14 9 18 6 10 -10 -16 -77 -35 -90 -10 -7 -20 -23 -23 -35 -5
-17 0 -22 20 -26 34 -6 52 1 45 19 -3 8 -1 14 5 14 6 0 12 -6 15 -12 4 -10 7
-10 18 0 19 18 26 15 33 -14 5 -20 1 -31 -19 -50 -32 -29 -35 -30 -35 -4 0 15
-7 20 -25 20 -14 0 -25 -6 -25 -13 0 -20 -33 -47 -58 -47 -25 0 -34 -11 -23
-29 12 -18 68 -5 81 20 11 20 45 26 55 9 3 -5 1 -19 -6 -31 -13 -25 4 -42 32
-34 10 3 20 -4 27 -20 6 -14 16 -25 22 -25 6 0 -2 18 -16 40 -32 47 -27 68 18
72 41 4 53 42 17 51 -17 5 -20 11 -15 32 5 19 2 27 -11 32 -41 14 -73 70 -48
80 10 3 13 12 10 24 -7 22 14 26 47 8 15 -8 22 -8 28 1 6 9 13 4 24 -18 14
-27 14 -31 -1 -36 -9 -4 -23 0 -33 9 -22 20 -42 19 -38 -2 2 -10 13 -19 24
-21 13 -2 26 -16 34 -38 l14 -34 13 32 c10 24 16 29 22 19 10 -15 56 -19 84
-7 13 6 17 4 17 -11 0 -23 35 -59 44 -45 8 14 67 4 88 -15 20 -18 24 -49 7
-55 -7 -2 -9 -13 -4 -27 10 -31 51 -26 47 7 -4 24 4 27 42 12 17 -6 27 -6 31
1 4 5 15 7 25 4 33 -10 31 12 -4 39 -65 49 -83 76 -51 76 8 0 15 -4 15 -8 0
-5 17 -14 38 -20 38 -12 70 -46 52 -57 -6 -3 -10 -14 -10 -25 0 -14 7 -18 31
-16 19 0 34 -5 37 -13 4 -11 -5 -13 -41 -9 -50 6 -60 -3 -50 -44 8 -31 24 -40
43 -23 8 7 27 18 42 24 22 8 26 8 21 -4 -4 -12 4 -15 36 -15 33 0 41 -4 41
-18 0 -21 42 -48 59 -37 8 4 5 15 -9 32 -11 14 -20 31 -20 38 0 20 33 28 42
10 5 -8 16 -15 23 -15 8 0 15 -8 15 -18 0 -11 11 -24 25 -30 24 -11 25 -10 25
18 0 17 5 30 10 30 6 0 10 -9 10 -19 0 -10 7 -22 16 -25 11 -4 14 -13 11 -28
-4 -12 -2 -27 4 -34 7 -8 7 -14 -1 -19 -5 -3 -10 1 -10 10 0 12 -6 15 -20 10
-11 -4 -29 0 -42 9 -30 21 -50 20 -81 -4 -36 -28 -57 -26 -57 7 0 24 -1 25
-17 10 -10 -8 -37 -20 -60 -26 -25 -7 -47 -20 -54 -32 -14 -26 -2 -40 15 -17
7 9 34 22 60 28 40 9 50 8 63 -6 11 -10 25 -14 42 -9 75 18 81 18 90 -6 11
-31 -3 -79 -30 -101 -19 -16 -19 -18 -4 -24 11 -5 25 2 41 21 24 29 30 26 36
-22 2 -16 7 -20 17 -14 11 7 12 17 3 52 -12 48 -6 61 29 64 15 1 23 9 24 24 1
12 -2 24 -7 27 -4 3 -8 9 -8 15 0 16 26 10 45 -11 26 -28 38 -25 33 10 -3 16
-1 30 4 30 4 0 8 7 8 15 0 8 5 15 10 15 13 0 13 -27 0 -35 -6 -3 -10 -13 -10
-22 0 -12 7 -14 35 -10 31 5 34 4 20 -9 -8 -9 -15 -25 -15 -37 -1 -24 -22 -57
-37 -57 -6 0 -8 11 -5 25 5 27 -7 32 -38 15 -17 -9 -17 -12 -4 -40 9 -16 21
-33 29 -37 20 -11 13 -47 -10 -56 -20 -8 -20 -9 -1 -22 24 -18 33 -12 41 26 6
27 10 30 33 24 15 -4 31 -13 35 -21 10 -18 31 -18 47 1 18 21 40 19 40 -4 0
-22 -35 -51 -61 -51 -9 0 -19 -9 -22 -20 -6 -22 -43 -28 -50 -7 -3 9 -11 9
-33 -3 -34 -18 -34 -34 1 -38 14 -2 25 -10 25 -18 0 -20 27 -17 53 6 l21 20
23 -29 c25 -31 69 -50 59 -25 -3 8 -1 14 4 14 6 0 10 9 10 19 0 10 6 21 14 24
18 7 62 -17 58 -31 -1 -7 2 -12 8 -12 6 0 9 -5 8 -12 -2 -7 7 -17 20 -23 23
-10 30 -25 12 -25 -5 0 -10 -9 -10 -20 0 -20 -29 -29 -31 -10 -3 20 -4 25 -12
37 -4 6 -4 18 -1 27 4 11 1 16 -11 16 -12 0 -15 -5 -10 -20 4 -11 2 -20 -4
-20 -16 0 -13 -19 4 -36 8 -9 15 -31 15 -50 0 -20 6 -37 14 -40 8 -3 16 -14
19 -25 3 -10 13 -19 24 -19 10 0 29 -9 43 -19 24 -19 24 -19 42 2 24 27 19 51
-10 55 -25 4 -28 19 -8 45 14 18 86 25 86 7 0 -5 -6 -7 -14 -4 -25 9 -28 -16
-5 -35 l23 -18 -22 -12 c-24 -13 -30 -51 -9 -51 8 0 24 9 37 20 13 11 27 20
32 20 12 0 10 34 -4 48 -9 9 -8 12 4 12 9 0 22 -13 30 -30 7 -16 16 -30 20
-30 4 0 5 -13 2 -28 -5 -23 -1 -30 20 -40 32 -14 34 -38 4 -46 -13 -3 -34 -14
-47 -25 l-24 -19 31 -6 c51 -12 70 -56 23 -56 -10 0 -30 -9 -44 -20 -14 -11
-37 -20 -50 -20 -32 0 -43 -16 -26 -36 12 -14 15 -14 30 5 21 26 29 27 29 2 0
-10 -7 -21 -15 -25 -8 -3 -12 -12 -9 -21 9 -22 24 -18 24 6 0 16 5 20 19 16
26 -6 43 6 36 26 -4 10 -13 13 -23 9 -15 -5 -15 -4 -2 9 19 18 111 42 121 32
5 -5 -5 -24 -22 -42 -16 -19 -28 -39 -25 -47 3 -9 -7 -14 -32 -17 l-37 -4 43
-1 c27 -1 42 2 42 10 0 9 3 9 12 0 7 -7 26 -11 43 -11 l30 2 -28 4 c-19 3 -27
10 -25 20 4 22 23 27 39 10 17 -17 89 -11 89 8 0 7 7 18 15 25 12 10 16 9 21
-5 4 -9 2 -21 -5 -28 -6 -6 -11 -17 -11 -24 0 -11 1212 -13 6630 -13 l6630 0
0 12000 0 12000 -19200 0 -19200 0 0 -12000z m18910 5733 c14 -9 30 -24 37
-33 7 -8 13 -11 13 -6 0 5 9 1 19 -8 16 -14 30 -16 87 -10 102 10 437 11 451
1 7 -5 17 -6 23 -2 20 12 81 16 250 17 131 0 173 -3 202 -16 20 -8 39 -20 42
-25 4 -5 20 -5 41 2 30 9 38 8 58 -10 31 -28 82 -37 102 -16 16 16 41 15 185
-3 19 -3 62 -4 94 -4 33 1 70 -4 83 -11 15 -8 26 -9 35 -2 9 7 42 4 103 -7 50
-10 126 -23 170 -29 87 -13 119 -22 210 -57 33 -12 78 -26 100 -29 22 -3 84
-24 138 -46 53 -21 105 -39 113 -39 9 0 37 -10 63 -23 25 -13 52 -22 59 -19 6
2 12 -1 12 -6 0 -10 53 -34 115 -52 51 -16 96 -35 285 -128 260 -127 375 -214
222 -167 -21 7 -23 5 -17 -21 5 -22 4 -25 -4 -14 -8 12 -14 13 -29 4 -16 -10
-18 -8 -16 20 2 30 -19 66 -39 66 -5 0 -7 -9 -4 -19 7 -27 -18 -34 -49 -15
-19 13 -27 14 -39 4 -15 -12 -35 -6 -35 12 0 5 -14 23 -31 39 -33 30 -69 32
-69 3 0 -8 -7 -14 -15 -14 -17 0 -20 16 -5 25 6 3 10 18 10 33 0 22 -8 30 -43
46 -23 10 -50 22 -59 27 -10 5 -25 9 -33 9 -8 0 -15 5 -15 11 0 5 -21 20 -47
31 -27 11 -60 33 -74 48 -23 23 -37 28 -103 33 -50 3 -81 11 -92 21 -15 16
-35 16 -111 0 -13 -2 -23 0 -23 4 0 5 -12 7 -27 4 -18 -3 -30 1 -39 12 -9 13
-19 16 -36 10 -13 -4 -33 -7 -45 -5 -11 1 -24 -3 -28 -9 -4 -7 -15 -3 -32 10
-17 14 -29 17 -33 10 -5 -7 -11 -6 -20 5 -16 19 -51 20 -44 2 3 -8 -3 -20 -12
-28 -15 -12 -16 -11 -10 18 6 28 5 31 -12 26 -14 -3 -21 2 -25 16 -8 30 -26
26 -38 -9 -12 -33 -24 -38 -33 -15 -3 8 -11 14 -18 13 -7 -2 -17 7 -23 20 -9
20 -15 23 -47 18 -35 -6 -37 -5 -40 26 -4 41 -28 50 -28 10 0 -35 -21 -56 -48
-48 -11 4 -29 -2 -45 -14 -30 -24 -37 -25 -37 -6 0 19 -30 28 -88 28 -26 0
-56 3 -67 8 -32 12 -161 30 -265 35 -52 3 -96 10 -98 15 -2 6 -10 10 -19 10
-8 0 -27 6 -41 14 -41 21 -103 32 -147 26 -22 -3 -50 -1 -62 4 -16 6 -29 4
-46 -6 -20 -14 -26 -14 -42 -2 -28 21 -38 17 -31 -10 3 -14 2 -28 -4 -31 -16
-10 -50 5 -50 21 0 8 -5 12 -10 9 -6 -4 -8 -11 -5 -16 4 -5 2 -9 -3 -9 -6 0
-12 7 -16 15 -7 19 -20 19 -61 -1 -22 -10 -32 -21 -28 -30 3 -8 0 -14 -6 -14
-6 0 -11 -6 -11 -14 0 -19 -39 -31 -53 -17 -19 19 -26 12 -18 -16 4 -16 4 -40
0 -55 -4 -16 -4 -28 0 -28 6 0 7 -22 3 -74 -2 -13 -7 -17 -23 -13 -27 7 -89
-32 -89 -55 0 -14 -9 -18 -41 -18 -30 0 -40 -4 -36 -13 3 -8 1 -20 -5 -28 -8
-11 -9 -10 -4 4 6 19 -4 21 -65 18 -38 -3 -79 22 -79 46 0 17 -19 16 -63 -2
-20 -8 -43 -12 -51 -9 -8 3 -29 -4 -45 -15 -16 -12 -39 -21 -51 -21 -13 0 -24
-8 -27 -20 -3 -11 -9 -17 -15 -14 -5 3 -14 -8 -21 -25 -6 -17 -18 -32 -27 -33
-8 0 -20 -2 -27 -2 -7 -1 -18 -7 -25 -14 -6 -6 -22 -12 -33 -12 -14 0 -26 -10
-33 -25 -14 -30 -37 -34 -29 -5 6 23 -33 53 -53 40 -8 -5 -18 -6 -22 -4 -5 3
-5 -13 -2 -36 7 -41 7 -42 -22 -38 -18 2 -29 9 -29 18 0 8 -7 15 -15 15 -10 0
-14 -8 -12 -26 3 -36 -30 -56 -91 -53 -27 1 -51 5 -54 8 -16 15 -54 3 -87 -28
-24 -22 -44 -32 -56 -29 -15 4 -24 -4 -37 -31 -9 -20 -24 -36 -32 -36 -13 0
-13 2 -2 9 10 7 11 13 2 30 -11 21 -31 29 -31 13 0 -5 -12 -12 -26 -18 l-26
-9 22 -23 c14 -15 19 -29 15 -40 -6 -15 -8 -14 -16 6 -4 12 -14 22 -20 22 -7
0 -10 12 -7 30 3 17 4 30 3 30 -7 0 -66 -63 -75 -79 -11 -21 -40 -29 -40 -11
0 6 -7 10 -15 10 -9 0 -15 -9 -15 -24 0 -14 -4 -28 -10 -31 -5 -3 -10 2 -10
11 0 16 -2 16 -19 -2 -26 -27 -60 -54 -68 -54 -3 0 -21 -12 -40 -26 -25 -19
-32 -31 -27 -46 5 -18 4 -18 -15 -8 -19 10 -26 7 -53 -22 -16 -18 -34 -43 -39
-55 -11 -29 -33 -29 -53 -1 -14 19 -16 19 -22 5 -3 -10 -17 -17 -30 -17 -26 0
-44 -27 -26 -39 7 -4 6 -12 -3 -25 -8 -10 -18 -15 -24 -12 -15 10 -24 -13 -11
-29 8 -10 9 -19 1 -32 -9 -17 -10 -17 -16 0 -10 24 -55 23 -55 -2 0 -11 5 -23
10 -26 6 -3 10 -1 10 4 0 6 4 11 9 11 4 0 8 -12 8 -27 0 -16 3 -37 8 -47 7
-17 5 -18 -28 -12 -33 6 -37 4 -52 -24 l-16 -31 -21 26 c-13 17 -24 23 -30 17
-12 -12 20 -61 40 -62 20 0 10 -34 -11 -38 -12 -2 -17 3 -17 18 0 12 -5 18
-10 15 -6 -3 -7 -17 -4 -31 5 -21 3 -24 -20 -24 -19 0 -26 -5 -26 -20 0 -11
-4 -20 -8 -20 -5 0 -17 9 -27 20 -25 28 -37 25 -33 -7 2 -22 9 -29 29 -31 19
-2 28 -10 32 -28 4 -21 1 -24 -15 -18 -13 4 -25 -1 -34 -13 -13 -17 -14 -16
-8 11 6 26 5 29 -15 23 -16 -4 -21 -1 -21 14 0 21 -26 26 -33 7 -2 -7 0 -21 5
-31 6 -12 5 -23 -2 -33 -7 -8 -9 -25 -6 -40 6 -21 11 -25 30 -20 26 6 40 -6
49 -42 3 -15 1 -22 -6 -19 -7 2 -11 14 -9 26 3 20 1 21 -17 10 -15 -10 -25
-10 -45 -1 -21 9 -26 9 -26 -3 0 -14 21 -39 42 -49 10 -5 10 -7 1 -12 -8 -3
-13 -24 -13 -50 0 -52 -18 -58 -48 -17 l-20 28 -21 -25 c-17 -21 -20 -22 -21
-7 0 18 -22 47 -36 47 -3 0 -4 -16 -1 -35 3 -21 0 -49 -8 -69 -8 -18 -12 -36
-9 -39 3 -3 3 -15 -1 -27 -5 -17 -13 -21 -31 -17 -18 3 -24 0 -24 -14 0 -10
-4 -21 -10 -24 -5 -3 -10 -15 -10 -26 0 -11 -6 -22 -13 -25 -10 -3 -13 -21
-10 -62 2 -31 5 -63 8 -70 3 -7 1 -10 -5 -7 -5 3 -16 -8 -25 -24 -22 -44 -19
-58 8 -33 29 27 43 28 57 3 13 -26 13 -31 -5 -31 -18 0 -19 -12 -3 -28 8 -8 8
-15 -1 -26 -9 -11 -6 -18 16 -36 24 -18 26 -24 15 -41 -14 -21 -8 -39 11 -39
7 0 28 -16 47 -35 25 -26 31 -38 23 -46 -11 -11 -16 -9 -58 29 -16 14 -25 15
-25 3 0 -5 10 -13 21 -16 19 -6 20 -9 6 -22 -23 -23 -51 -9 -43 22 5 18 2 25
-9 25 -20 0 -19 -24 1 -56 14 -21 15 -29 4 -49 -16 -30 -55 -33 -69 -6 -6 10
-7 21 -4 25 10 10 -21 7 -37 -4 -13 -9 -12 -12 4 -25 10 -8 23 -16 29 -18 15
-5 -1 -27 -20 -27 -19 0 -58 -31 -58 -47 0 -15 5 -19 38 -27 25 -6 28 -4 25
16 -2 14 2 23 10 22 6 -1 19 -2 27 -2 20 -3 19 -42 -1 -57 -16 -11 -16 -12 0
-18 9 -4 16 -2 16 4 0 6 4 8 9 5 5 -3 3 -22 -4 -43 -7 -20 -12 -51 -11 -67 3
-32 -16 -55 -44 -56 -8 0 -23 -7 -33 -14 -18 -14 -18 -16 -2 -40 10 -14 13
-26 9 -26 -5 -1 8 -10 29 -21 39 -20 42 -26 28 -47 -7 -12 -12 -12 -32 0 -13
7 -29 20 -36 28 -9 11 -14 12 -23 3 -9 -8 -5 -15 16 -29 38 -24 44 -34 38 -60
-8 -30 17 -47 50 -34 33 12 34 30 2 30 -32 0 -43 18 -23 37 13 14 17 13 35 -5
11 -11 29 -23 41 -27 13 -4 21 -15 21 -30 0 -42 10 -56 31 -44 14 7 19 6 19
-4 0 -27 -26 -67 -43 -67 -15 0 -16 3 -7 21 13 24 13 24 -17 33 -19 6 -23 4
-23 -16 0 -13 5 -29 11 -35 7 -7 9 -19 5 -28 -6 -16 -8 -16 -30 -2 -22 15 -24
15 -29 -3 -3 -11 -12 -20 -21 -20 -9 0 -16 -4 -16 -10 0 -5 -6 -7 -14 -4 -22
8 -27 -37 -8 -78 14 -31 21 -36 41 -31 14 4 26 0 32 -8 6 -10 11 -11 19 -3 15
15 -13 43 -51 51 -37 7 -43 17 -29 44 8 14 17 18 28 14 9 -4 24 -7 32 -8 8 0
20 -4 26 -8 7 -6 16 -3 24 6 19 23 30 18 30 -15 0 -16 4 -30 10 -30 5 0 13
-12 16 -26 7 -29 -7 -44 -43 -44 -17 0 -20 -4 -16 -21 3 -12 0 -25 -7 -29 -9
-6 -7 -11 9 -20 19 -10 22 -17 16 -48 -5 -29 -2 -42 13 -57 15 -15 16 -24 8
-37 -16 -27 8 -47 31 -27 20 17 56 14 50 -4 -2 -7 -13 -16 -25 -22 -26 -11
-25 -38 1 -43 12 -3 17 3 17 22 0 33 27 35 41 3 7 -17 8 -35 1 -61 -10 -34 -9
-37 19 -52 32 -16 37 -49 8 -49 -9 0 -23 -5 -30 -11 -8 -6 -22 -14 -31 -17
-10 -3 -20 -18 -24 -32 -5 -21 -11 -25 -28 -21 -88 21 -113 17 -85 -11 16 -16
3 -60 -20 -73 -15 -7 -23 -6 -35 5 -19 19 -32 19 -40 0 -4 -11 -16 -15 -42
-13 -33 3 -36 0 -49 -35 -11 -32 -11 -43 1 -65 8 -15 17 -42 20 -60 4 -18 15
-38 25 -46 16 -11 17 -15 5 -31 -13 -18 -42 -13 -31 6 11 17 -26 22 -44 5 -21
-19 -43 -20 -94 -1 -43 15 -97 4 -97 -20 0 -8 -11 -26 -23 -42 -14 -16 -27
-48 -30 -76 -5 -36 -17 -60 -47 -96 -27 -32 -40 -57 -40 -78 0 -18 -12 -47
-30 -72 -29 -39 -31 -49 -42 -189 -6 -81 -11 -163 -12 -182 -1 -19 -6 -47 -10
-62 -7 -25 -13 -28 -51 -28 -63 0 -75 -7 -75 -45 0 -18 -11 -48 -25 -69 -14
-21 -34 -55 -45 -76 -25 -50 -55 -70 -102 -70 -20 0 -40 -4 -43 -10 -13 -21
-45 -8 -90 35 -44 43 -46 48 -40 85 5 32 3 40 -12 49 -11 5 -28 28 -38 51 -15
34 -16 45 -7 61 16 25 15 36 -3 43 -21 8 -43 -49 -51 -129 -6 -56 -10 -65 -33
-74 -59 -25 -95 -22 -134 10 -51 42 -59 81 -56 275 2 112 -1 168 -8 175 -19
19 -42 -53 -63 -196 -19 -127 -39 -197 -73 -263 -24 -44 -67 -172 -67 -198 0
-11 -6 -28 -13 -38 -12 -17 -16 -17 -44 -3 -16 9 -47 37 -69 63 -65 78 -106
115 -123 112 -10 -2 -24 -27 -37 -65 -31 -94 -55 -142 -73 -147 -9 -3 -36 -6
-61 -8 -37 -2 -46 0 -55 18 -6 12 -16 29 -23 37 -7 8 -12 28 -11 43 1 16 -2
43 -6 60 -6 26 -3 32 18 41 23 11 26 18 30 90 3 43 12 172 20 288 9 115 14
211 11 214 -3 3 -15 -8 -28 -24 -15 -19 -28 -26 -39 -22 -10 4 -17 1 -17 -6 0
-24 -22 -37 -42 -26 -25 13 -32 6 -20 -18 5 -10 16 -32 24 -50 17 -34 6 -50
-23 -32 -37 23 -40 7 -10 -46 36 -63 40 -91 14 -80 -54 22 -56 20 -27 -32 24
-43 27 -53 15 -67 -15 -18 -41 -22 -41 -6 0 6 -7 10 -15 10 -21 0 -19 -6 11
-45 14 -19 23 -39 19 -45 -10 -17 -86 -12 -108 7 -18 17 -18 17 -6 -10 10 -22
10 -33 -1 -55 -29 -61 -30 -68 -21 -98 11 -39 3 -52 -39 -64 -43 -12 -59 1
-89 77 -12 32 -28 69 -34 82 -19 39 -12 110 14 137 25 27 53 30 89 9 38 -21
47 -18 42 14 -5 39 12 47 47 22 44 -31 42 -26 -6 27 -47 51 -62 87 -44 105 16
16 14 66 -4 84 -27 26 -2 72 38 73 22 0 22 15 -3 55 -19 31 -25 115 -7 115 4
0 7 -4 7 -10 0 -5 5 -10 10 -10 7 0 8 23 4 64 -7 69 6 93 31 60 13 -17 14 -17
15 -2 0 9 -4 20 -10 23 -11 7 -4 59 12 92 8 17 8 30 -1 49 -10 22 -9 30 5 45
9 11 25 19 36 19 10 0 18 7 18 18 0 9 11 36 25 60 20 35 23 52 18 87 -5 39 -3
46 23 68 26 23 27 26 15 55 -16 38 -9 62 19 62 26 0 36 24 22 55 -10 21 -8 27
11 40 17 12 21 24 19 61 -1 41 0 45 20 42 18 -2 25 5 38 37 8 22 27 52 43 67
15 15 27 33 27 41 0 8 7 20 15 27 11 9 14 22 10 40 -3 15 -1 39 5 55 7 19 8
31 0 39 -26 26 5 55 40 36 15 -8 21 -6 28 7 5 10 7 24 4 32 -3 9 0 11 9 7 8
-3 22 -9 31 -12 23 -8 28 -35 10 -56 -12 -15 -12 -19 1 -33 28 -28 34 -16 35
73 0 48 7 113 15 143 35 128 41 168 27 184 -15 18 -39 19 -61 2 -18 -14 -79
-131 -79 -152 0 -19 -31 -35 -67 -35 -16 0 -44 -9 -63 -20 -19 -11 -49 -27
-66 -35 -17 -7 -36 -21 -44 -30 -27 -32 -103 22 -115 82 -5 27 -1 41 18 66 13
18 38 59 54 92 91 183 168 323 198 359 21 26 37 61 44 96 7 30 18 61 25 70 7
8 16 27 20 42 3 14 9 33 12 42 3 9 1 16 -5 16 -6 0 -11 -6 -11 -13 0 -7 -9
-18 -20 -25 -13 -8 -20 -23 -20 -42 0 -23 -4 -28 -16 -23 -12 5 -15 0 -14 -23
3 -41 -21 -94 -42 -94 -14 0 -18 -8 -18 -33 0 -25 -4 -33 -20 -34 -11 -1 -31
-10 -44 -20 -23 -17 -24 -23 -21 -83 3 -36 1 -59 -4 -52 -7 11 -11 10 -25 -3
-9 -9 -16 -21 -16 -26 0 -5 -10 -9 -22 -9 -17 0 -19 -3 -10 -12 14 -14 16 -29
3 -25 -5 1 -17 -7 -26 -18 -9 -11 -14 -15 -11 -9 3 6 -1 20 -9 30 -8 11 -14
14 -15 6 0 -7 -16 -20 -35 -29 -34 -16 -52 -44 -41 -62 8 -13 -4 -42 -15 -35
-5 3 -9 -2 -9 -10 0 -9 -5 -15 -12 -13 -6 1 -16 -14 -22 -33 -6 -19 -19 -46
-28 -61 -10 -14 -21 -41 -24 -60 -4 -18 -12 -41 -19 -49 -14 -18 -24 -40 -41
-95 -19 -63 -39 -111 -51 -126 -5 -8 -16 -32 -23 -54 -7 -22 -18 -51 -25 -65
-33 -67 -75 -191 -80 -240 -4 -30 -10 -64 -15 -75 -28 -69 -44 -143 -42 -200
1 -16 -5 -52 -13 -79 -17 -55 -13 -66 15 -48 28 17 30 16 30 -23 0 -24 -4 -33
-13 -29 -8 3 -19 -7 -26 -22 -9 -20 -15 -24 -23 -16 -22 22 -37 12 -44 -25 -4
-21 -11 -47 -17 -58 -19 -35 -78 -440 -76 -520 0 -22 -5 -83 -11 -135 -7 -52
-9 -124 -6 -159 6 -70 -25 -222 -51 -253 -13 -14 -12 -20 4 -44 21 -33 22
-133 1 -226 -14 -65 -34 -80 -24 -18 3 22 3 40 -2 40 -4 0 -16 25 -26 54 -17
49 -23 129 -16 216 1 14 -5 56 -14 95 -21 90 -21 295 -1 475 9 74 18 153 20
175 10 92 77 452 114 611 93 401 212 735 415 1156 36 76 66 144 66 153 0 36
123 252 175 305 29 30 60 69 69 85 9 17 42 67 74 111 31 45 72 103 91 130 47
67 139 179 192 233 8 9 31 36 49 61 48 63 147 178 254 294 50 54 106 115 124
135 18 20 36 49 40 66 10 37 62 74 95 68 26 -5 60 16 207 127 161 121 237 177
278 204 23 16 52 44 63 63 12 18 34 40 50 48 15 9 104 68 196 133 174 122 216
148 367 227 50 25 110 59 133 76 24 16 47 29 51 29 18 0 73 57 77 79 2 13 6
26 9 28 12 12 89 23 103 15 10 -6 36 -3 72 8 62 19 241 108 241 120 0 4 -7 10
-15 14 -19 7 -20 26 -2 26 8 0 22 9 32 20 13 15 31 20 67 20 27 0 48 -5 48
-10 0 -15 59 -3 140 27 142 53 291 98 400 123 19 4 64 17 100 28 36 12 117 33
180 48 63 15 131 35 150 46 19 10 47 18 63 18 15 0 39 7 52 16 52 34 244 46
285 17z m1280 -83 c0 -5 -7 -10 -15 -10 -8 0 -15 5 -15 10 0 6 7 10 15 10 8 0
15 -4 15 -10z m575 -250 c-3 -5 -10 -10 -16 -10 -5 0 -9 5 -9 10 0 6 7 10 16
10 8 0 12 -4 9 -10z m-1715 -210 c0 -5 -4 -10 -10 -10 -5 0 -10 5 -10 10 0 6
5 10 10 10 6 0 10 -4 10 -10z m-100 -29 c0 -5 -7 -12 -16 -15 -22 -9 -24 -8
-24 9 0 8 9 15 20 15 11 0 20 -4 20 -9z m2195 -87 c13 -14 21 -15 41 -5 31 14
83 14 155 1 30 -5 84 -12 121 -14 47 -2 82 -11 115 -29 27 -14 76 -28 108 -32
33 -4 98 -20 145 -37 47 -16 114 -35 150 -42 36 -7 82 -22 102 -34 20 -11 54
-25 75 -31 21 -6 74 -34 117 -63 43 -29 93 -62 110 -72 17 -11 69 -45 116 -75
47 -31 128 -78 180 -105 52 -27 102 -55 111 -62 8 -8 19 -14 24 -14 5 0 29
-17 54 -38 25 -22 62 -47 81 -57 19 -10 87 -58 150 -108 142 -111 584 -555
642 -644 22 -34 50 -65 61 -69 55 -18 182 -145 203 -204 8 -21 205 -327 295
-457 16 -23 29 -45 29 -50 0 -5 11 -25 25 -45 14 -20 47 -76 73 -125 27 -48
53 -97 59 -108 6 -11 27 -54 46 -95 19 -41 53 -113 75 -160 85 -178 165 -368
188 -450 14 -47 36 -123 50 -170 13 -47 33 -128 44 -180 11 -52 31 -147 45
-210 59 -263 80 -466 52 -504 -12 -17 -15 -17 -48 5 -36 25 -63 86 -74 174
-15 113 -34 167 -70 196 -19 16 -19 17 -1 51 12 21 17 46 14 64 -10 55 -69
266 -82 293 -7 14 -25 64 -40 111 -15 47 -30 92 -33 100 -3 8 -8 24 -10 35 -1
11 -7 29 -13 40 -5 11 -23 63 -40 115 -17 52 -42 117 -56 144 -13 28 -24 57
-24 66 0 16 -57 157 -70 175 -4 6 -27 46 -50 90 -46 89 -65 108 -96 101 -29
-8 -83 48 -127 132 -20 39 -48 87 -62 107 -14 21 -25 43 -25 50 0 6 -30 56
-67 111 -36 54 -89 133 -117 174 -27 41 -75 100 -106 132 -31 31 -79 84 -106
118 -27 34 -66 82 -86 107 -21 24 -38 48 -38 52 0 9 -165 177 -259 264 -61 56
-69 77 -30 77 18 0 19 2 5 29 -9 16 -13 31 -10 34 10 9 -46 109 -76 139 -27
25 -60 37 -60 22 0 -14 64 -103 70 -99 5 3 10 -15 12 -39 4 -54 -9 -54 -36 -1
-23 46 -40 62 -116 112 -41 28 -64 36 -91 34 -39 -2 -70 22 -52 40 11 11 43 2
43 -12 0 -5 5 -9 10 -9 15 0 -3 30 -49 84 -22 25 -42 53 -45 63 -7 21 -59 53
-86 53 -10 0 -25 8 -32 18 -18 24 -79 45 -92 32 -24 -24 -5 -70 28 -70 8 0 20
-9 26 -20 6 -11 17 -20 25 -20 14 0 99 -99 92 -106 -11 -11 -264 124 -316 169
-18 15 -37 27 -44 27 -15 0 -175 76 -309 149 -32 17 -63 29 -70 27 -7 -1 -10
-1 -5 1 16 10 5 33 -23 48 -36 19 -40 19 -40 -1 0 -11 6 -15 20 -11 11 3 20 1
20 -5 0 -18 -154 7 -171 28 -6 8 -23 14 -38 14 -14 0 -58 12 -96 26 -65 24
-124 36 -169 35 -11 0 -31 9 -45 20 -19 16 -33 19 -63 14 -37 -7 -39 -5 -53
29 -9 20 -20 36 -27 36 -6 0 -19 7 -27 14 -23 21 -50 4 -32 -18 8 -9 19 -16
25 -15 25 3 37 -2 34 -13 -3 -8 -24 -14 -49 -14 -59 -2 -82 4 -75 22 3 9 1 12
-5 9 -6 -4 -9 1 -7 11 2 15 -4 20 -30 22 -25 3 -32 8 -30 20 2 10 13 17 27 17
13 0 26 6 28 13 3 7 -4 12 -15 12 -11 0 -22 5 -24 10 -2 6 -21 13 -43 16 -77
10 -90 15 -75 24 12 7 12 12 2 22 -9 9 -15 9 -24 0 -17 -17 -21 -15 -53 13
-21 20 -30 23 -41 14 -11 -9 -18 -9 -29 1 -8 7 -12 16 -9 21 9 15 -25 22 -41
9 -9 -7 -18 -10 -22 -7 -3 4 -14 2 -23 -3 -12 -7 -21 -6 -28 3 -8 10 -6 13 10
14 34 3 41 26 13 41 -29 15 -32 38 -7 50 9 5 71 10 136 11 66 0 122 3 124 6 8
7 9 7 27 -11z m1235 -124 c0 -5 -2 -10 -4 -10 -3 0 -8 5 -11 10 -3 6 -1 10 4
10 6 0 11 -4 11 -10z m80 -41 c0 -5 -7 -9 -15 -9 -8 0 -15 7 -15 15 0 9 6 12
15 9 8 -4 15 -10 15 -15z m-4219 -16 c-8 -15 -10 -15 -11 -2 0 17 10 32 18 25
2 -3 -1 -13 -7 -23z m4254 -3 c3 -5 1 -10 -4 -10 -6 0 -11 5 -11 10 0 6 2 10
4 10 3 0 8 -4 11 -10z m-4311 -25 c-4 -8 -10 -15 -15 -15 -5 0 -9 7 -9 15 0 8
7 15 15 15 9 0 12 -6 9 -15z m2866 11 c0 -3 -4 -8 -10 -11 -5 -3 -10 -1 -10 4
0 6 5 11 10 11 6 0 10 -2 10 -4z m1497 -22 c-3 -3 -12 -4 -19 -1 -8 3 -5 6 6
6 11 1 17 -2 13 -5z m-1402 -54 c-3 -5 -12 -10 -18 -10 -7 0 -6 4 3 10 19 12
23 12 15 0z m-3308 -116 c-3 -3 -12 -4 -19 -1 -8 3 -5 6 6 6 11 1 17 -2 13 -5z
m-1707 -64 c0 -5 -4 -10 -10 -10 -5 0 -10 5 -10 10 0 6 5 10 10 10 6 0 10 -4
10 -10z m5296 -102 c22 -10 28 -10 32 0 5 17 54 15 78 -3 18 -13 16 -14 -23
-15 -71 0 -51 -26 62 -83 66 -33 181 -114 173 -122 -2 -2 -21 1 -43 6 -22 6
-53 12 -70 14 -60 7 -66 11 -231 165 -52 49 -42 67 22 38z m-4062 -253 c-4 -8
-10 -12 -15 -9 -11 6 -2 24 11 24 5 0 7 -7 4 -15z m5366 -114 c0 -4 17 -17 38
-28 20 -12 48 -33 61 -47 14 -14 30 -26 36 -26 17 0 162 -116 173 -137 4 -10
7 -33 6 -50 -1 -18 -2 -42 -3 -53 -1 -24 -39 -28 -47 -5 -9 22 -66 52 -115 60
-60 10 -69 16 -93 65 -26 53 -95 99 -117 78 -22 -21 -48 -21 -85 2 -34 19 -61
19 -48 -1 3 -5 10 -7 15 -3 5 3 9 2 8 -3 -4 -23 3 -33 25 -33 31 0 44 -34 21
-56 -14 -15 -18 -15 -33 -1 -9 8 -38 24 -64 35 -26 11 -53 30 -60 41 -7 12
-22 21 -33 21 -36 0 -44 17 -28 63 8 23 16 43 18 45 2 2 17 -4 34 -12 22 -12
36 -13 56 -6 22 8 32 6 59 -15 38 -29 38 -29 90 -14 37 10 38 12 33 47 -8 44
7 66 34 51 10 -5 19 -13 19 -18z m-5435 -150 c3 -5 1 -12 -4 -15 -5 -3 -11 1
-15 9 -6 16 9 21 19 6z m5133 -77 c22 -15 30 -58 12 -69 -5 -3 -7 -12 -3 -21
8 -21 -16 -102 -33 -108 -7 -3 -16 -1 -19 5 -4 5 -10 7 -15 4 -5 -3 -7 22 -5
57 2 35 0 78 -6 95 -6 18 -8 37 -4 43 9 15 47 12 73 -6z m207 -35 c11 -17 -1
-21 -15 -4 -8 9 -8 15 -2 15 6 0 14 -5 17 -11z m40 -123 c41 -41 44 -46 32
-68 -7 -12 -24 -36 -39 -51 l-26 -28 -31 30 c-26 25 -30 36 -25 58 4 16 16 36
28 45 16 13 17 18 6 18 -9 0 -20 -4 -26 -10 -7 -7 -9 -1 -8 18 2 34 0 32 24
32 10 0 40 -20 65 -44z m-5563 12 c-7 -7 -12 -8 -12 -2 0 14 12 26 19 19 2 -3
-1 -11 -7 -17z m-152 -38 c0 -11 -4 -20 -10 -20 -5 0 -10 9 -10 20 0 11 5 20
10 20 6 0 10 -9 10 -20z m70 -6 c0 -8 -4 -14 -10 -14 -5 0 -10 9 -10 21 0 11
5 17 10 14 6 -3 10 -13 10 -21z m-94 -59 c-3 -9 -11 -13 -16 -10 -8 5 -7 11 1
21 14 18 24 11 15 -11z m-18 -42 c-4 -22 -22 -20 -26 1 -2 10 3 16 13 16 10 0
15 -7 13 -17z m-39 -71 c5 -10 6 -24 1 -32 -7 -11 -13 -9 -29 11 -11 13 -20
27 -21 32 0 15 40 6 49 -11z m6065 -34 c-9 -31 -12 -34 -25 -21 -15 15 -4 43
16 43 12 0 15 -6 9 -22z m-1803 -93 c90 -42 182 -120 159 -135 -33 -21 -153
25 -215 83 -27 26 -53 47 -57 47 -5 0 -8 9 -8 20 0 30 36 26 121 -15z m-4201
-140 c0 -8 -4 -15 -10 -15 -5 0 -10 -11 -10 -24 0 -14 -10 -32 -22 -40 -28
-20 -37 -12 -15 12 10 10 17 24 17 31 0 18 19 51 30 51 6 0 10 -7 10 -15z
m4980 -117 c36 -26 39 -62 8 -95 -31 -33 -76 -30 -116 6 -40 37 -40 53 1 85
39 32 69 33 107 4z m-4900 -2 c0 -3 -4 -8 -10 -11 -5 -3 -10 -1 -10 4 0 6 5
11 10 11 6 0 10 -2 10 -4z m-112 -330 c3 -12 -1 -17 -10 -14 -7 3 -15 13 -16
22 -3 12 1 17 10 14 7 -3 15 -13 16 -22z m5718 -28 c16 -31 16 -32 0 -19 -23
19 -40 51 -27 51 6 0 18 -15 27 -32z m124 -157 c-1 -13 -3 -13 -15 3 -19 26
-19 42 0 26 8 -7 15 -20 15 -29z m-5930 -13 c0 -13 -5 -30 -10 -38 -7 -11 -10
-5 -10 23 0 20 5 37 10 37 6 0 10 -10 10 -22z m4789 -95 c63 -56 28 -153 -56
-153 -67 0 -139 61 -131 112 5 33 63 68 113 68 32 0 51 -7 74 -27z m2604 -70
c5 -7 6 -22 2 -32 -4 -13 2 -25 20 -39 14 -11 25 -30 25 -43 0 -13 18 -60 40
-104 37 -75 54 -155 32 -155 -10 0 -62 56 -62 66 0 14 -55 114 -62 114 -4 0
-8 11 -8 25 0 13 -9 39 -20 57 -11 18 -20 44 -20 59 0 14 -4 29 -9 35 -5 5
-11 28 -14 52 l-5 42 36 -31 c21 -18 41 -38 45 -46z m-7236 41 c4 -12 -45 -29
-55 -20 -2 3 1 13 8 21 14 17 41 17 47 -1z m5927 -76 c14 -27 23 -48 20 -48
-9 0 -43 44 -44 56 0 6 -7 17 -15 24 -8 7 -15 20 -15 28 0 14 2 14 14 2 7 -8
25 -36 40 -62z m-5864 -108 c0 -18 -37 -52 -44 -41 -4 5 -2 12 3 16 6 3 8 12
4 20 -3 10 2 15 16 15 12 0 21 -5 21 -10z m-100 -50 c0 -5 -5 -10 -11 -10 -5
0 -7 5 -4 10 3 6 8 10 11 10 2 0 4 -4 4 -10z m6068 -25 c-3 -3 -9 2 -12 12 -6
14 -5 15 5 6 7 -7 10 -15 7 -18z m62 -107 c0 -19 -2 -20 -10 -8 -13 19 -13 30
0 30 6 0 10 -10 10 -22z m-6130 -158 c0 -5 -2 -10 -4 -10 -3 0 -8 5 -11 10 -3
6 -1 10 4 10 6 0 11 -4 11 -10z m7390 -191 c0 -4 -7 -6 -15 -3 -8 4 -15 10
-15 15 0 4 7 6 15 3 8 -4 15 -10 15 -15z m-7270 2 c0 -6 -4 -13 -10 -16 -5 -3
-10 1 -10 9 0 9 5 16 10 16 6 0 10 -4 10 -9z m7016 -107 c21 -31 15 -37 -24
-23 -26 9 -32 16 -32 40 0 27 2 29 20 19 11 -6 27 -22 36 -36z m-576 -183 c12
-17 16 -32 11 -36 -14 -8 -48 15 -60 42 -9 20 -8 23 9 23 10 0 28 -13 40 -29z
m-260 -27 c26 -22 31 -33 28 -63 -3 -33 -6 -36 -35 -39 -25 -3 -39 3 -57 23
-26 28 -42 77 -31 95 12 19 63 10 95 -16z m-197 -22 c25 -26 27 -35 27 -109 0
-90 -14 -118 -47 -92 -44 33 -93 95 -93 117 0 33 48 112 69 112 10 0 29 -13
44 -28z m297 18 c0 -5 -2 -10 -4 -10 -3 0 -8 5 -11 10 -3 6 -1 10 4 10 6 0 11
-4 11 -10z m-579 -145 c43 -28 79 -78 79 -111 0 -30 -38 -74 -64 -74 -36 0
-104 51 -119 89 -23 56 5 116 56 120 4 1 25 -10 48 -24z m649 -37 c12 -22 24
-63 27 -90 5 -41 4 -48 -10 -42 -45 17 -89 174 -48 174 5 0 19 -19 31 -42z
m-879 -57 c42 -22 99 -77 99 -96 0 -17 -21 -41 -64 -74 -41 -33 -74 -39 -106
-19 -15 10 -26 9 -55 -5 -52 -25 -70 -21 -110 20 -40 41 -43 67 -18 126 17 37
20 39 55 34 30 -4 41 0 60 20 19 20 30 24 61 20 20 -3 56 -15 78 -26z m955
-143 c23 -73 21 -178 -4 -178 -19 0 -55 41 -59 67 -5 34 -5 91 1 118 3 11 5
26 5 33 1 19 49 -15 57 -40z m-273 -119 c40 -20 76 -61 83 -93 3 -17 11 -37
17 -44 8 -11 1 -23 -33 -53 -24 -21 -54 -39 -66 -39 -13 0 -26 -4 -29 -10 -9
-15 -25 -12 -25 5 0 8 4 15 10 15 5 0 14 9 20 20 9 16 7 26 -9 47 -12 14 -21
35 -21 46 0 11 -5 35 -12 53 -20 56 10 81 65 53z m-9022 -9 c10 -6 19 -17 19
-26 0 -11 -4 -12 -19 -5 -10 6 -21 17 -25 26 -6 18 -2 19 25 5z m5672 -45 c43
-39 44 -44 18 -76 -19 -23 -20 -23 -55 -6 -45 21 -76 78 -56 102 20 24 52 18
93 -20z m-5687 -7 c38 -41 58 -102 39 -118 -8 -6 -17 -24 -20 -40 -6 -28 -56
-80 -76 -80 -19 0 -69 31 -70 43 0 6 -4 50 -9 97 -7 78 -6 87 13 108 32 35 85
30 123 -10z m8437 -42 c67 -27 86 -69 41 -86 -22 -9 -34 -6 -70 15 -87 51 -63
110 29 71z m881 -26 c30 -33 36 -48 36 -84 0 -31 -5 -46 -16 -50 -24 -9 -54
-7 -54 4 0 6 -8 10 -17 10 -28 1 -93 67 -93 95 0 18 10 30 38 44 53 28 65 26
106 -19z m-6821 -82 c50 -35 74 -128 38 -147 -58 -32 -163 60 -146 128 14 55
47 61 108 19z m8254 -3 c38 -19 60 -67 45 -98 -6 -12 -13 -35 -17 -50 -4 -22
-11 -28 -28 -25 -14 2 -23 11 -25 27 -2 13 -15 43 -28 67 -29 51 -30 69 -6 83
23 14 24 14 59 -4z m-2564 -41 c34 -17 127 -91 139 -110 5 -7 28 -24 52 -38
88 -51 116 -136 45 -136 -11 0 -72 59 -86 84 -6 10 -15 16 -22 12 -19 -12 -12
-45 15 -62 36 -24 17 -37 -37 -25 -27 6 -52 20 -64 35 -11 14 -31 27 -44 28
-20 2 -26 -3 -33 -29 -15 -58 -108 -68 -211 -23 -52 23 -73 48 -83 100 -7 33
-7 33 26 27 l32 -7 -16 25 c-9 14 -19 45 -23 70 -5 42 -4 45 16 45 46 0 78
-27 111 -95 13 -26 31 -45 50 -52 l30 -11 0 71 c0 102 29 128 103 91z m995
-30 c41 -20 46 -64 8 -64 -14 0 -28 5 -31 10 -3 6 -15 10 -26 10 -19 0 -24 15
-13 44 8 20 23 20 62 0z m-9343 -54 c8 -13 55 -13 55 1 0 5 4 8 8 5 5 -3 7
-19 4 -36 -3 -20 1 -37 12 -49 10 -11 13 -22 8 -25 -6 -3 -13 1 -16 9 -4 12
-10 13 -25 5 -11 -5 -22 -10 -25 -10 -7 0 -46 85 -46 99 0 14 17 14 25 1z
m10582 -61 c39 -19 43 -24 43 -57 0 -33 -22 -72 -42 -72 -12 0 -58 47 -58 58
0 5 -7 15 -15 22 -18 15 -19 42 -3 58 16 16 25 15 75 -9z m-10544 -148 c-3
-11 6 -29 22 -47 14 -15 24 -35 21 -44 -26 -83 -26 -77 4 -122 30 -45 30 -58
1 -58 -10 0 -29 -9 -43 -20 l-25 -19 -37 33 c-20 19 -36 38 -36 43 0 17 39 46
54 40 32 -12 30 39 -5 131 -14 37 -11 50 19 65 15 8 28 15 29 16 0 1 -1 -7 -4
-18z m1437 -163 c20 -7 48 -25 64 -39 24 -23 28 -35 31 -90 3 -74 -14 -108
-65 -129 -60 -25 -163 18 -196 82 -23 44 -22 123 2 149 42 48 90 56 164 27z
m9539 -86 c19 -60 18 -61 -1 -78 -18 -17 -20 -17 -47 12 -28 30 -30 44 -16
119 2 11 4 27 4 35 2 31 42 -27 60 -88z m-10808 -3 c5 -11 6 -19 1 -19 -10 0
-62 53 -62 63 0 12 50 -25 61 -44z m3051 1 c31 -24 59 -89 51 -119 -12 -47
-91 -34 -119 21 -18 35 -18 52 1 88 18 35 33 37 67 10z m6884 -24 c20 -21 18
-39 -3 -27 -16 8 -18 3 -16 -47 5 -196 4 -245 -6 -312 -24 -163 -52 -429 -47
-457 9 -47 46 -124 57 -117 6 3 8 18 4 32 -5 20 -1 30 17 43 18 14 21 20 11
30 -7 7 -13 23 -13 36 0 28 34 32 45 6 6 -14 12 -5 26 37 10 30 18 65 18 78 1
27 11 28 61 2 62 -32 110 -10 110 51 0 13 -20 42 -51 73 -65 65 -85 94 -72
107 6 6 18 2 34 -12 13 -11 29 -24 35 -27 6 -4 17 -20 25 -37 16 -34 52 -41
57 -12 8 38 -8 64 -49 82 -45 21 -79 58 -79 86 0 33 37 21 82 -25 47 -49 94
-68 104 -43 11 31 -35 88 -89 109 -44 16 -61 68 -23 68 8 0 25 15 39 34 29 37
71 53 93 35 27 -22 33 -3 14 51 -31 88 -26 108 16 69 l22 -21 17 26 c12 18 26
26 44 25 39 -1 54 -9 112 -62 47 -45 53 -47 62 -31 6 10 14 23 19 29 4 5 17
21 27 35 18 23 21 24 53 12 21 -7 53 -10 81 -6 85 12 177 -42 177 -102 0 -14
-13 -33 -34 -50 l-33 -27 -2 -175 c-1 -96 -3 -178 -5 -181 -2 -3 -9 -58 -15
-121 -7 -63 -23 -171 -37 -240 -23 -119 -38 -198 -48 -265 -11 -72 -147 -545
-174 -608 -11 -23 -25 -60 -31 -82 -7 -22 -28 -72 -47 -111 -19 -39 -34 -78
-34 -86 0 -8 -9 -25 -20 -38 -11 -12 -23 -39 -26 -59 -6 -30 -33 -81 -54 -101
-3 -3 -11 -16 -18 -30 -6 -14 -16 -32 -21 -40 -5 -8 -13 -26 -19 -40 -16 -42
-66 -145 -72 -150 -11 -9 -29 -65 -35 -110 -9 -62 -23 -98 -59 -145 -17 -22
-33 -42 -36 -45 -17 -16 -70 -90 -70 -98 0 -5 -12 -19 -26 -33 -23 -21 -77
-95 -79 -109 -4 -19 -48 -82 -87 -124 -26 -28 -72 -89 -102 -136 -30 -47 -68
-98 -83 -115 -26 -28 -93 -122 -120 -169 -34 -59 -365 -396 -390 -396 -12 0
-103 -88 -103 -99 0 -5 -10 -13 -22 -17 -13 -4 -32 -15 -43 -25 -63 -58 -78
-69 -100 -69 -16 0 -25 -6 -25 -15 0 -21 -68 -85 -102 -97 -15 -5 -30 -18 -33
-28 -3 -10 -19 -22 -35 -25 -17 -4 -30 -10 -30 -15 0 -18 -84 -90 -106 -90
-13 0 -37 -15 -56 -35 -18 -20 -39 -33 -46 -30 -7 2 -17 -6 -23 -19 -11 -23
-80 -61 -100 -54 -7 2 -24 -8 -38 -22 -50 -47 -78 -67 -104 -74 -15 -3 -27
-11 -27 -16 0 -6 -6 -10 -13 -10 -7 0 -34 -13 -60 -30 -26 -16 -57 -30 -67
-30 -11 0 -20 -6 -20 -13 0 -13 -76 -57 -97 -57 -6 0 -16 -7 -23 -15 -7 -8
-20 -15 -30 -15 -9 0 -22 -11 -29 -24 -9 -16 -25 -26 -51 -30 -21 -3 -40 -10
-42 -14 -5 -13 -65 -52 -81 -52 -8 0 -20 -7 -27 -15 -7 -8 -19 -15 -28 -15 -8
0 -30 -11 -48 -25 -18 -14 -46 -25 -62 -25 -16 0 -41 -9 -55 -20 -14 -11 -30
-20 -35 -20 -6 0 -17 -6 -24 -13 -7 -7 -24 -18 -38 -25 -32 -15 -64 -35 -70
-44 -3 -3 -19 -10 -35 -14 -17 -4 -48 -15 -70 -24 -78 -34 -175 -70 -190 -70
-9 0 -26 -6 -38 -14 -12 -8 -40 -19 -62 -25 -97 -24 -112 -29 -132 -39 -12 -7
-32 -12 -45 -12 -13 0 -29 -5 -34 -10 -6 -6 -25 -12 -42 -14 -17 -3 -35 -7
-40 -10 -16 -10 -162 -46 -186 -46 -13 0 -39 -7 -59 -15 -59 -24 -402 -75
-532 -78 -71 -2 -168 8 -185 18 -6 4 -20 -1 -30 -10 -17 -16 -22 -16 -42 -3
-38 25 -63 27 -89 7 -30 -23 -65 -24 -78 -1 -10 16 -10 16 -11 0 0 -14 -9 -18
-39 -18 -23 0 -41 5 -44 13 -3 9 -9 9 -30 -2 -22 -12 -29 -12 -42 -1 -11 9
-37 11 -95 7 -55 -4 -80 -3 -82 5 -3 7 -9 8 -19 3 -19 -13 -132 -12 -141 0 -5
7 -13 6 -25 -1 -11 -6 -31 -7 -53 -2 -19 5 -72 8 -117 8 -45 0 -84 4 -87 9 -4
5 -37 12 -74 16 -37 4 -89 13 -117 20 -27 8 -63 14 -80 14 -16 0 -55 4 -85 10
-30 6 -86 13 -125 17 -38 3 -80 13 -92 20 -12 8 -43 14 -69 14 -25 0 -80 10
-122 21 -88 25 -305 92 -372 114 -25 9 -85 29 -135 45 -248 79 -522 188 -546
216 -5 6 -38 22 -72 35 -34 12 -75 33 -90 46 -16 13 -35 23 -43 23 -22 0 -64
30 -64 45 0 18 43 32 48 16 2 -6 14 -11 27 -11 12 0 28 -7 35 -15 17 -20 30
-19 30 4 0 12 9 20 25 23 14 3 25 1 25 -4 0 -5 12 -20 27 -34 18 -17 33 -22
47 -18 28 8 28 8 48 0 9 -4 25 -3 37 3 27 15 31 14 31 -8 0 -34 72 -67 83 -38
3 6 6 2 6 -9 1 -35 29 -49 97 -50 35 0 69 -6 77 -12 8 -7 16 -9 19 -6 3 2 18
-9 34 -26 20 -21 38 -30 60 -30 18 0 38 -8 49 -20 19 -20 45 -27 45 -11 0 18
50 18 72 0 11 -11 33 -19 47 -19 40 0 71 -11 71 -24 0 -8 11 -11 28 -8 27 3
54 -12 64 -36 1 -5 13 -13 26 -16 17 -6 22 -3 22 9 0 19 30 15 87 -12 19 -9
43 -13 57 -9 19 5 33 -1 57 -24 34 -31 54 -31 44 1 -7 20 18 28 30 9 3 -5 15
-10 26 -10 21 0 26 -16 7 -22 -8 -3 -7 -11 4 -27 l17 -23 3 33 c2 24 7 33 18
30 8 -2 47 -7 85 -12 97 -11 206 -33 232 -47 12 -7 38 -12 57 -12 30 0 36 -4
36 -21 0 -12 -8 -23 -20 -26 -26 -7 -26 -23 0 -23 15 0 22 9 26 30 7 32 20 39
79 40 91 2 145 -11 254 -63 25 -13 65 -11 93 4 16 9 78 -7 78 -20 0 -5 62 -9
188 -12 15 0 67 2 115 6 77 6 90 4 101 -11 12 -16 13 -16 18 4 5 17 16 21 89
27 46 4 98 6 114 4 62 -5 75 0 75 25 0 14 5 28 10 31 23 14 -26 95 -57 95 -7
0 -13 9 -13 20 0 10 -6 23 -13 27 -23 14 -28 43 -11 69 12 17 20 21 28 15 7
-6 39 -8 71 -5 33 3 86 7 118 8 38 1 61 7 67 16 7 12 15 13 39 3 23 -8 36 -8
56 3 18 9 41 12 66 8 30 -5 44 -2 59 11 23 20 105 39 167 37 49 -1 72 18 48
41 -10 10 -12 18 -5 22 16 10 40 -2 40 -20 0 -19 10 -19 36 0 12 8 24 12 27 8
3 -3 14 -3 23 1 13 5 14 9 4 21 -10 12 -9 15 3 15 9 0 21 8 26 19 7 13 18 17
36 13 30 -5 28 -24 -3 -32 -16 -4 -19 -9 -12 -20 7 -12 12 -12 22 -2 6 6 22
12 35 12 16 0 21 4 17 15 -4 8 1 17 10 21 9 3 16 17 16 30 0 23 2 23 60 19 50
-5 59 -3 54 10 -4 8 -15 15 -25 15 -20 0 -23 8 -13 34 3 9 10 13 16 10 5 -3 4
-11 -3 -20 -17 -20 15 -19 35 2 18 18 56 10 56 -11 0 -20 20 -29 33 -16 6 6
20 11 30 11 13 0 17 5 13 16 -6 16 9 54 22 54 4 0 13 -4 21 -9 12 -8 12 -13
-3 -35 -18 -28 -13 -34 10 -12 8 8 14 24 14 35 0 11 5 23 10 26 6 3 10 19 10
35 0 37 13 45 44 25 23 -15 26 -15 45 4 15 15 29 19 46 15 18 -4 31 1 49 19
27 27 66 27 66 1 0 -17 8 -18 43 -1 28 13 35 32 15 41 -9 3 -8 8 5 16 14 9 17
19 12 40 -5 21 -2 31 11 38 11 6 13 11 5 16 -20 13 -12 46 14 58 16 7 24 18
22 32 -2 17 3 20 21 18 13 -2 32 4 43 14 22 20 25 13 7 -16 -7 -10 -9 -22 -5
-26 10 -10 38 28 32 44 -2 6 0 12 6 12 5 0 15 -13 20 -29 7 -20 15 -28 25 -24
12 5 11 9 -6 25 -20 19 -20 20 -3 34 10 7 30 14 44 14 26 0 54 21 43 33 -9 9
51 67 70 67 9 0 16 -8 16 -20 0 -26 20 -17 45 20 11 17 25 30 32 30 21 0 26
23 8 36 -15 11 -16 16 -5 30 13 15 15 14 26 -1 15 -20 49 -12 41 9 -6 16 13
26 49 26 27 0 32 15 9 24 -18 6 -9 36 11 36 8 0 14 -7 14 -15 0 -8 6 -15 14
-15 9 0 12 7 9 18 -3 13 6 22 36 36 23 9 41 24 41 32 0 8 12 25 26 38 23 19
25 25 15 44 -11 20 -9 22 15 22 21 0 25 4 21 19 -3 12 1 22 9 25 8 3 14 16 14
28 0 19 6 23 30 24 17 1 30 -3 30 -7 0 -5 11 -9 25 -9 36 0 44 28 14 51 -18
14 -21 21 -12 30 6 6 9 18 6 25 -7 19 -42 18 -49 -1 -7 -17 -44 -20 -44 -4 0
7 8 18 18 25 16 13 16 13 0 14 -10 0 -18 -3 -18 -7 0 -15 -70 -55 -85 -49 -9
3 -27 -7 -45 -24 -17 -17 -34 -30 -39 -30 -4 0 -18 -9 -31 -20 -29 -25 -34
-25 -60 3 l-21 22 23 3 c32 5 48 22 20 22 -12 0 -22 4 -22 10 0 5 -8 6 -17 3
-17 -7 -17 -6 0 11 9 9 17 26 17 37 0 10 14 32 30 47 17 16 30 37 30 46 0 9
11 21 24 26 14 5 32 21 42 35 9 14 25 25 35 25 11 0 19 5 19 10 0 18 48 60 62
55 7 -2 20 6 30 18 16 23 16 23 -18 21 -28 -3 -34 0 -34 16 0 20 -34 45 -50
35 -5 -3 -11 -1 -15 4 -3 5 1 13 8 18 8 4 20 18 26 31 11 21 10 24 -8 29 -31
8 -34 32 -5 45 20 9 28 9 42 -5 10 -11 12 -17 4 -17 -8 0 -11 -10 -7 -27 8
-46 27 -83 42 -83 17 0 31 32 15 38 -14 4 -16 44 -3 57 13 13 61 104 61 114 0
17 -28 19 -48 5 -18 -12 -20 -18 -10 -39 15 -33 3 -43 -19 -17 -21 25 -85 54
-99 44 -5 -4 -15 -19 -21 -34 -7 -16 -19 -28 -28 -28 -17 0 -20 16 -4 26 7 4
1 15 -17 31 -25 21 -27 26 -15 45 10 16 10 22 0 28 -15 10 -4 41 13 38 8 -2
14 10 16 33 2 30 7 36 21 32 24 -6 39 15 46 65 3 31 1 42 -9 42 -8 0 -12 -8
-9 -23 5 -28 -19 -51 -44 -43 -21 7 -46 63 -32 72 14 8 11 34 -3 30 -7 -3 -25
-7 -40 -10 -34 -8 -37 -33 -8 -64 11 -11 16 -23 11 -26 -4 -3 -17 5 -28 18
-12 13 -27 26 -34 29 -10 4 -11 8 -3 14 7 4 14 19 15 33 2 14 12 34 22 44 19
22 22 42 7 51 -17 10 -11 53 8 58 9 3 -9 3 -42 0 -51 -3 -58 -2 -52 12 3 9 6
27 6 40 0 20 5 23 28 22 18 -1 27 3 27 13 0 8 -7 14 -16 14 -14 -1 -17 7 -15
39 1 22 8 43 14 45 18 6 15 50 -4 60 -15 8 -15 10 0 15 9 4 16 2 16 -3 0 -6
12 -10 27 -10 l28 0 -42 39 c-23 22 -39 42 -36 45 4 3 -8 9 -26 12 -25 5 -31
11 -29 28 1 11 -1 27 -6 34 -5 8 -2 20 7 30 18 21 30 55 17 47 -13 -8 -13 11
0 36 9 16 7 19 -10 19 -11 0 -19 -5 -18 -12 2 -6 -5 -14 -14 -16 -13 -2 -18 3
-18 17 0 11 -5 23 -11 27 -8 5 -8 9 1 14 8 5 0 12 -24 20 -42 14 -45 23 -11
38 14 6 25 16 25 22 0 6 -4 9 -9 5 -17 -10 -23 16 -8 33 19 22 27 70 16 99
-12 32 -35 29 -34 -4 0 -18 -5 -28 -15 -28 -9 0 -15 9 -15 25 0 35 -12 50 -40
50 -17 0 -26 8 -34 30 -5 17 -7 30 -3 30 4 0 -1 5 -10 11 -22 12 -24 49 -3 49
23 0 18 18 -10 36 -33 21 -23 34 20 27 33 -5 35 -4 33 21 -1 14 -8 26 -16 26
-7 0 -16 10 -21 22 -6 18 -9 19 -14 5 -8 -22 -46 -22 -62 0 -11 15 -13 15 -20
-6 -4 -14 -3 -26 3 -30 7 -4 7 -12 2 -20 -7 -12 -14 -11 -44 3 -20 9 -36 24
-36 32 0 8 4 13 9 9 12 -7 51 33 51 51 0 19 -20 28 -33 15 -8 -8 -8 -11 2 -11
7 0 9 -5 5 -11 -4 -7 -10 -7 -16 -1 -6 6 -5 17 3 30 11 17 10 26 0 49 -8 15
-16 23 -18 16 -2 -7 0 -21 6 -31 7 -14 6 -24 -4 -38 -14 -18 -14 -17 -15 9 0
29 -17 36 -38 15 -18 -18 -16 6 4 43 8 17 13 33 10 36 -8 9 -57 -27 -51 -37 3
-4 -4 -6 -14 -3 -30 8 -36 36 -12 52 26 16 27 31 4 31 -28 -1 -61 -29 -45 -39
7 -4 10 -15 6 -25 -5 -14 -9 -15 -15 -4 -7 10 -9 10 -9 1 0 -7 -9 -13 -20 -13
-22 0 -26 10 -10 26 11 11 2 27 -25 42 -16 9 -17 11 -4 12 24 0 33 32 14 46
-14 10 -16 25 -12 76 4 39 1 68 -6 76 -9 11 -8 17 4 26 8 6 16 29 18 51 2 22
8 49 13 60 8 14 8 20 -1 23 -28 9 -6 19 48 20 41 1 62 -3 71 -13 7 -8 21 -15
32 -15 11 0 32 -6 46 -14 33 -17 169 -56 198 -56 31 0 87 56 99 98 10 34 14
37 45 36 19 -1 71 -9 115 -17 44 -9 123 -24 175 -33 52 -9 123 -23 157 -31 52
-13 68 -13 93 -3 16 7 30 20 30 29 0 9 9 31 20 49 15 25 19 43 14 67 -6 31 -3
36 28 54 37 22 62 60 73 109 4 18 18 45 31 59 13 14 24 33 25 42 0 9 2 51 4
94 4 97 24 254 36 285 8 21 14 23 45 18 51 -10 69 -1 90 45 10 23 28 45 41 50
14 5 23 17 23 31 0 22 15 75 31 113 5 11 25 42 45 69 22 30 34 55 31 67 -5 20
4 18 36 -9 11 -10 17 -29 17 -54 0 -21 4 -38 8 -38 14 0 100 -70 106 -86 9
-23 -5 -44 -29 -44 -40 0 -38 -18 8 -62 51 -49 67 -76 67 -112 0 -19 5 -26 19
-26 29 0 38 19 44 94 4 38 14 80 23 93 14 22 14 28 0 58 -28 58 -21 93 26 137
23 21 53 41 66 45 34 8 89 -25 140 -86 57 -70 58 -114 5 -163 l-38 -33 -1
-243 c-1 -133 2 -242 6 -242 15 0 54 128 65 215 12 89 46 219 66 254 23 39 79
226 79 263 0 32 23 52 49 43 21 -6 81 -75 81 -92 0 -6 9 -18 20 -28 11 -10 25
-35 30 -57 12 -42 54 -78 71 -61 9 9 62 149 86 226 5 17 21 23 78 30 17 2 34
5 38 6 5 0 15 -5 23 -13z m-9676 -207 c0 -8 -7 -6 -20 6 -11 10 -17 22 -14 26
6 11 34 -15 34 -32z m2661 -8 c3 -3 11 -25 17 -49 12 -52 -5 -78 -58 -87 -60
-11 -111 47 -82 93 28 43 99 68 123 43z m-365 -146 c18 -14 42 -25 53 -25 61
0 86 -34 56 -74 -16 -22 -20 -56 -6 -56 4 0 7 -24 6 -52 -3 -70 -2 -68 -25
-68 -30 0 -93 63 -120 119 -13 28 -29 51 -36 51 -22 0 -42 -52 -36 -93 6 -53
-19 -90 -56 -81 -78 19 -172 91 -172 132 0 9 14 25 30 34 30 17 40 51 19 64
-8 4 -8 9 0 17 7 7 16 3 30 -15 34 -43 101 -31 101 17 0 17 8 25 27 30 17 4
29 2 31 -4 5 -16 22 -13 22 3 0 13 13 23 34 25 5 1 24 -10 42 -24z m2984 -17
c0 -4 -9 -3 -20 4 -11 7 -20 19 -20 27 0 11 5 10 20 -4 11 -10 20 -22 20 -27z
m-3360 -70 c0 -26 -15 -22 -44 13 -27 32 -31 41 -19 52 10 11 63 -44 63 -65z
m-2029 21 c27 -27 21 -54 -11 -54 -17 0 -29 8 -38 28 -23 47 10 65 49 26z
m4303 -45 c17 -16 21 -46 9 -58 -9 -8 -53 42 -53 61 0 18 25 17 44 -3z m3537
-108 c70 -30 109 -87 95 -140 -11 -44 -92 -53 -133 -15 -50 47 -58 108 -20
157 12 15 17 15 58 -2z m2145 -53 c15 -20 18 -53 6 -53 -16 0 -54 48 -47 59 9
16 26 13 41 -6z m-8817 -49 c52 -43 31 -91 -31 -73 -26 7 -28 6 -23 -12 12
-37 -39 -19 -60 21 -13 25 -13 29 0 34 8 3 15 11 15 19 0 42 55 48 99 11z
m2419 -13 c3 -8 -1 -12 -9 -9 -7 2 -15 10 -17 17 -3 8 1 12 9 9 7 -2 15 -10
17 -17z m-1605 -17 c46 -31 46 -56 0 -59 -24 -2 -39 5 -62 27 -32 31 -36 40
-24 51 13 14 50 6 86 -19z m-2178 -34 c20 -38 19 -43 -5 -30 -12 6 -20 21 -20
35 0 33 6 31 25 -5z m4915 -27 c49 -47 64 -107 31 -118 -38 -12 -81 5 -102 38
-31 52 -21 117 18 117 8 0 31 -17 53 -37z m-4523 -29 c26 -35 31 -50 26 -74
-7 -40 -27 -33 -31 11 -2 19 -9 39 -17 45 -16 12 -31 64 -19 63 5 0 24 -20 41
-45z m1180 4 c24 -23 29 -44 14 -67 -13 -20 -61 30 -61 64 0 31 16 32 47 3z
m-239 -63 c-6 -14 -13 -23 -16 -21 -7 7 9 46 18 46 5 0 4 -11 -2 -25z m-1464
-76 c14 -17 26 -43 26 -57 0 -30 18 -66 73 -146 21 -30 36 -60 32 -65 -3 -6 6
-43 20 -84 24 -72 31 -107 19 -107 -3 0 -14 5 -25 10 -21 12 -32 5 -60 -40
-15 -26 -15 -60 2 -60 17 0 58 -79 84 -162 14 -45 37 -105 50 -133 13 -27 27
-70 31 -95 7 -43 20 -75 107 -260 22 -47 51 -114 64 -150 14 -36 48 -107 76
-158 29 -52 57 -104 64 -116 7 -12 21 -31 33 -41 20 -18 20 -18 20 3 0 11 5
24 10 27 6 3 10 17 10 31 0 13 4 24 9 24 18 0 51 -59 60 -104 5 -25 16 -56 25
-68 9 -13 24 -34 33 -48 9 -14 30 -40 45 -58 15 -18 28 -42 28 -52 0 -11 5
-20 10 -20 6 0 17 -14 24 -30 7 -17 37 -57 67 -88 30 -31 68 -75 84 -97 16
-22 40 -51 52 -65 13 -14 23 -28 23 -33 0 -4 23 -29 50 -56 28 -27 50 -55 50
-63 0 -8 13 -24 30 -36 16 -12 37 -36 45 -52 8 -16 31 -45 50 -64 19 -19 44
-56 57 -83 12 -26 28 -54 36 -62 8 -8 25 -32 38 -53 14 -21 45 -65 70 -98 25
-33 43 -64 40 -68 -3 -5 6 -20 19 -32 14 -13 25 -31 25 -40 0 -21 43 -67 112
-118 61 -45 98 -56 106 -32 5 13 3 13 -11 1 -15 -12 -17 -11 -17 8 0 51 99 -6
132 -76 11 -24 24 -41 28 -38 12 7 71 -77 66 -92 -3 -7 -1 -15 4 -18 15 -9 12
-25 -4 -25 -30 0 -76 35 -82 63 -3 16 -16 33 -30 39 -13 6 -24 16 -24 22 0 5
-6 1 -14 -9 -13 -18 -16 -19 -33 -4 -10 9 -29 20 -42 24 -13 4 -31 13 -40 21
-26 22 -134 107 -177 139 -72 55 -249 228 -429 419 -55 58 -105 106 -112 106
-7 0 -16 6 -20 14 -11 19 -71 48 -77 37 -3 -4 0 -22 6 -39 7 -17 9 -35 5 -39
-7 -7 -111 42 -148 70 -23 18 -45 65 -58 126 -13 62 -5 79 30 61 19 -11 24
-10 36 6 28 38 18 70 -70 219 -9 17 -25 46 -35 65 -9 19 -21 37 -25 38 -11 5
-76 77 -134 147 -72 89 -109 151 -147 251 -45 117 -99 245 -111 264 -11 16
-25 52 -57 140 -29 80 -96 190 -112 184 -7 -3 -29 5 -49 16 -32 19 -35 24 -24
40 6 11 20 20 32 22 13 2 24 15 32 40 10 32 9 44 -13 105 -43 114 -45 125 -46
216 -1 48 -5 87 -10 87 -5 0 -6 5 -3 10 3 6 1 10 -6 10 -7 0 -9 11 -5 35 5 27
3 37 -9 41 -8 3 -15 17 -15 29 0 13 -4 27 -10 30 -14 9 -12 35 5 68 16 30 11
57 -11 57 -8 0 -14 9 -14 19 0 11 -5 23 -10 26 -6 4 -8 21 -4 40 3 19 1 35 -5
39 -6 4 -11 23 -11 42 0 43 19 45 54 3z m266 16 c7 -8 8 -15 2 -15 -5 0 -15 7
-22 15 -7 8 -8 15 -2 15 5 0 15 -7 22 -15z m305 -15 c3 -5 3 -15 -1 -21 -6
-11 -23 6 -24 24 0 10 18 9 25 -3z m1972 -30 c45 -27 65 -61 61 -107 -2 -30
-7 -39 -25 -41 -12 -2 -33 4 -47 14 l-26 16 0 -39 c0 -21 -7 -48 -15 -60 -18
-26 -71 -43 -109 -36 -39 8 -93 73 -101 124 -7 42 -6 45 31 77 42 36 65 37
115 1 15 -10 29 -19 32 -19 3 0 8 17 12 37 6 33 19 52 35 53 3 0 19 -9 37 -20z
m-2031 -146 c27 -28 31 -44 11 -44 -14 0 -67 50 -67 63 0 16 35 5 56 -19z
m1649 -4 c43 -27 65 -61 65 -103 0 -43 -12 -53 -72 -62 -44 -7 -50 -5 -78 23
-38 39 -44 92 -13 139 19 29 54 30 98 3z m-255 -87 c22 -20 33 -40 36 -68 5
-35 1 -45 -26 -74 l-31 -34 -35 34 c-36 35 -41 56 -23 110 13 38 27 59 40 59
5 0 23 -12 39 -27z m-199 -114 c48 -52 38 -85 -19 -65 -44 15 -57 34 -48 69 9
36 31 34 67 -4z m-1012 -302 c15 -8 28 -27 36 -52 6 -22 19 -54 28 -71 20 -38
15 -44 -34 -44 -21 0 -49 -5 -63 -11 -20 -9 -29 -9 -41 1 -9 7 -32 16 -52 19
-38 6 -67 36 -47 49 6 4 10 20 10 37 -1 23 5 32 28 43 16 8 31 23 34 34 4 17
10 19 41 13 20 -4 47 -12 60 -18z m6701 -63 c0 -19 -27 -24 -41 -8 -7 8 -18
13 -26 10 -22 -9 -14 9 10 20 24 11 57 -2 57 -22z m-7071 -70 c38 -34 52 -61
66 -131 7 -36 -4 -43 -29 -18 -8 8 -22 15 -31 15 -18 0 -84 63 -86 82 -4 40
14 88 31 88 6 0 28 -16 49 -36z m7103 14 c-7 -7 -12 -8 -12 -2 0 14 12 26 19
19 2 -3 -1 -11 -7 -17z m153 -138 c-7 -24 -43 -27 -52 -5 -3 9 2 24 12 35 15
17 19 17 32 5 8 -9 12 -23 8 -35z m135 -279 c0 -26 -4 -29 -42 -34 -49 -7 -98
1 -98 16 0 5 13 7 30 4 22 -5 30 -3 30 8 0 9 9 15 23 15 12 0 29 5 37 10 20
13 20 14 20 -19z m-160 -39 c0 -4 -5 -13 -11 -19 -8 -8 -8 -13 0 -17 6 -4 11
-2 11 3 0 6 9 11 20 11 15 0 20 -7 20 -27 0 -20 -3 -24 -9 -14 -5 8 -16 11
-29 7 -25 -8 -36 7 -28 40 6 22 26 35 26 16z m120 -41 c0 -17 -27 -37 -37 -27
-7 7 17 46 27 46 6 0 10 -9 10 -19z m90 -51 c0 -24 -25 -60 -42 -60 -10 0 -18
5 -18 10 0 6 -7 10 -15 10 -8 0 -15 5 -15 11 0 10 5 9 46 -8 6 -2 14 7 18 21
6 25 26 37 26 16z m-4366 -31 c43 -33 50 -55 29 -89 -34 -58 -122 -62 -156 -8
-27 42 -28 63 -6 91 27 35 93 38 133 6z m4211 1 c3 -5 2 -10 -4 -10 -6 0 -8
-7 -5 -15 4 -9 0 -15 -10 -15 -9 0 -16 8 -16 18 0 29 22 43 35 22z m95 -60
c13 -9 13 -11 0 -20 -21 -14 -40 -12 -40 3 0 26 16 33 40 17z m98 -22 c7 -7
12 -18 12 -25 0 -18 -112 -14 -117 4 -3 8 6 10 31 6 27 -4 37 -2 42 11 7 19
16 20 32 4z m-11 -110 c-3 -8 -6 -5 -6 6 -1 11 2 17 5 13 3 -3 4 -12 1 -19z
m-4 -65 c-7 -2 -19 -2 -25 0 -7 3 -2 5 12 5 14 0 19 -2 13 -5z m54 -69 c-3 -3
-12 -4 -19 -1 -8 3 -5 6 6 6 11 1 17 -2 13 -5z m-437 -14 c0 -5 -6 -10 -14
-10 -8 0 -18 5 -21 10 -3 6 3 10 14 10 12 0 21 -4 21 -10z m475 -181 c11 -17
-1 -21 -15 -4 -8 9 -8 15 -2 15 6 0 14 -5 17 -11z m-4820 -106 c14 -15 25 -30
25 -33 0 -14 -53 -60 -70 -60 -27 0 -68 56 -62 85 8 42 71 46 107 8z m4975
-163 c0 -11 -4 -20 -9 -20 -14 0 -23 18 -16 30 10 17 25 11 25 -10z m-5946
-624 c39 -16 110 -86 98 -98 -4 -4 -24 -5 -44 -1 -42 6 -108 65 -108 95 0 22
10 22 54 4z m1466 -123 c104 -37 198 -101 213 -145 8 -22 4 -22 -53 -4 -25 8
-70 22 -102 30 -72 21 -168 90 -168 122 0 21 4 23 33 18 17 -3 52 -13 77 -21z
m4280 -123 c12 -8 9 -10 -12 -10 -16 0 -28 5 -28 10 0 13 20 13 40 0z m125
-29 c-3 -6 -11 -11 -16 -11 -5 0 -4 6 3 14 14 16 24 13 13 -3z m-5791 -42 c30
-23 34 -49 9 -49 -26 0 -89 56 -72 63 25 10 36 7 63 -14z m5646 17 c0 -3 -4
-8 -10 -11 -5 -3 -10 -1 -10 4 0 6 5 11 10 11 6 0 10 -2 10 -4z m-6212 -104
c12 -8 22 -18 22 -22 0 -4 13 -13 30 -20 39 -16 132 -116 128 -137 -5 -26 -21
-25 -58 4 -46 37 -130 125 -130 137 0 5 -15 22 -32 38 -31 27 -31 28 -8 22 14
-4 35 -14 48 -22z m310 -270 c12 -12 27 -22 32 -22 19 0 10 -18 -12 -23 -16
-5 -30 1 -48 18 -15 14 -30 25 -34 25 -16 0 -56 51 -56 70 0 16 6 15 48 -14
26 -17 58 -42 70 -54z m547 -92 c62 -38 49 -68 -15 -35 -18 9 -30 24 -30 35 0
25 5 25 45 0z m-444 -18 c-28 -4 -40 6 -21 18 9 6 20 4 29 -3 12 -10 11 -13
-8 -15z m82 -48 c-4 -11 -10 -9 -29 11 -31 34 -30 37 6 19 19 -10 27 -20 23
-30z m1187 -1 c40 -19 88 -44 105 -57 16 -12 35 -25 40 -27 48 -20 85 -53 85
-76 0 -22 -3 -24 -22 -18 -13 4 -33 6 -44 6 -12 0 -29 10 -37 23 -21 31 -75
55 -134 60 -42 4 -57 12 -106 57 -31 28 -54 55 -51 60 11 18 92 5 164 -28z
m-750 -3 c0 -5 -4 -10 -10 -10 -5 0 -10 5 -10 10 0 6 5 10 10 10 6 0 10 -4 10
-10z m65 -40 c45 -22 92 -66 82 -76 -8 -8 -135 67 -141 84 -8 17 12 15 59 -8z
m4795 -20 c0 -5 -2 -10 -4 -10 -3 0 -8 5 -11 10 -3 6 -1 10 4 10 6 0 11 -4 11
-10z m-4392 -98 c2 -16 8 -22 18 -18 20 8 60 -11 122 -57 61 -46 69 -72 20
-62 -80 17 -228 93 -228 116 0 48 62 67 68 21z m4272 13 c0 -8 -7 -15 -15 -15
-8 0 -15 7 -15 15 0 8 7 15 15 15 8 0 15 -7 15 -15z m-4469 -23 c-7 -2 -18 1
-23 6 -8 8 -4 9 13 5 13 -4 18 -8 10 -11z m-409 -9 c10 -9 18 -23 18 -31 0
-10 -8 -6 -25 12 -14 15 -25 29 -25 32 0 9 14 3 32 -13z m62 -52 c3 -5 -3 -11
-14 -14 -13 -3 -20 0 -20 9 0 15 26 19 34 5z m109 -71 c10 -15 22 -19 38 -16
29 7 84 -37 75 -59 -9 -24 -36 -17 -64 15 -15 17 -36 30 -49 30 -22 0 -48 32
-36 44 11 11 21 7 36 -14z m867 13 c-1 -20 -30 -45 -45 -39 -13 4 -14 10 -5
26 10 19 50 29 50 13z m-203 -9 c-3 -3 -12 -4 -19 -1 -8 3 -5 6 6 6 11 1 17
-2 13 -5z m278 -14 c3 -5 2 -10 -4 -10 -5 0 -13 5 -16 10 -3 6 -2 10 4 10 5 0
13 -4 16 -10z m50 -10 c-4 -6 11 -11 37 -11 24 -1 56 -2 72 -3 41 -1 44 -24 5
-40 -33 -14 -76 -7 -90 15 -3 5 -16 11 -29 14 -31 6 -37 14 -20 25 20 13 33
12 25 0z m3425 0 c0 -5 -4 -10 -9 -10 -6 0 -13 5 -16 10 -3 6 1 10 9 10 9 0
16 -4 16 -10z m-1325 -380 c3 -5 1 -10 -4 -10 -6 0 -11 5 -11 10 0 6 2 10 4
10 3 0 8 -4 11 -10z m3135 -5130 c0 -11 -4 -20 -10 -20 -5 0 -10 9 -10 20 0
11 5 20 10 20 6 0 10 -9 10 -20z m-230 -86 c0 -8 -5 -12 -10 -9 -6 4 -8 11 -5
16 9 14 15 11 15 -7z m450 -76 c0 -5 -4 -8 -10 -8 -5 0 -10 10 -10 23 0 18 2
19 10 7 5 -8 10 -18 10 -22z m225 22 c3 -5 1 -10 -4 -10 -6 0 -11 5 -11 10 0
6 2 10 4 10 3 0 8 -4 11 -10z m50 -45 c0 -16 -5 -30 -11 -32 -13 -4 -25 33
-17 53 9 24 28 10 28 -21z m-890 -42 c16 -18 21 -29 13 -32 -6 -2 -18 6 -26
18 -8 11 -21 21 -28 21 -8 0 -14 5 -14 10 0 19 29 10 55 -17z m335 -8 c0 -8
-4 -15 -10 -15 -5 0 -7 7 -4 15 4 8 8 15 10 15 2 0 4 -7 4 -15z m211 -51 c-9
-24 -9 -38 0 -58 13 -28 8 -43 -11 -31 -7 4 -10 16 -7 26 3 11 1 19 -4 19 -12
0 -11 57 1 65 6 3 10 16 10 28 1 21 1 21 12 3 8 -14 8 -28 -1 -52z m135 34 c4
-5 2 -14 -3 -19 -10 -10 -56 18 -48 31 6 10 43 1 51 -12z m-1124 -30 c-9 -9
-12 -7 -12 12 0 19 3 21 12 12 9 -9 9 -15 0 -24z m1489 19 c-1 -12 -15 -9 -19
4 -3 6 1 10 8 8 6 -3 11 -8 11 -12z m284 -5 c0 -18 -20 -15 -23 4 -3 10 1 15
10 12 7 -3 13 -10 13 -16z m-535 -36 c-13 -13 -35 7 -25 24 5 8 11 8 21 -1 10
-8 12 -15 4 -23z m658 1 c4 -29 -12 -37 -22 -11 -10 26 -7 46 7 42 6 -3 13
-17 15 -31z m-824 5 c2 -4 0 -14 -5 -22 -8 -13 -10 -13 -18 0 -10 15 -6 30 9
30 5 0 11 -4 14 -8z m643 -7 c8 -23 -4 -30 -21 -12 -8 8 -12 17 -9 21 11 11
23 7 30 -9z m-1584 -14 c5 -22 0 -31 -20 -31 -13 0 -18 31 -6 43 11 12 21 8
26 -12z m1517 0 c0 -12 -20 -25 -27 -18 -7 7 6 27 18 27 5 0 9 -4 9 -9z m-160
-27 c0 -20 -28 -17 -39 5 -9 16 -7 17 14 13 14 -2 25 -11 25 -18z m364 4 c-3
-5 -12 -4 -20 3 -19 16 -18 18 6 12 11 -3 17 -9 14 -15z m-1649 -8 c3 -5 1
-10 -4 -10 -6 0 -11 5 -11 10 0 6 2 10 4 10 3 0 8 -4 11 -10z m575 -30 c0 -31
-16 -41 -26 -15 -8 19 2 45 16 45 5 0 10 -13 10 -30z m480 14 c0 -9 -5 -14
-12 -12 -18 6 -21 28 -4 28 9 0 16 -7 16 -16z m120 7 c0 -5 10 -13 23 -17 26
-8 37 -22 30 -41 -8 -21 -19 -15 -47 27 -14 22 -22 40 -16 40 5 0 10 -4 10 -9z
m-240 -43 c0 -14 -5 -18 -16 -14 -9 3 -20 6 -26 6 -6 0 -3 9 7 20 20 23 35 18
35 -12z m447 15 c3 -10 13 -26 21 -36 13 -15 13 -21 2 -42 -8 -16 -17 -22 -24
-16 -13 10 -35 13 -93 12 -29 0 -43 4 -43 13 0 21 11 25 36 16 14 -6 26 -6 29
0 4 6 16 3 31 -6 27 -18 29 -16 13 20 -12 26 -6 56 11 56 6 0 13 -8 17 -17z
m-934 -36 c23 -8 22 -24 -3 -37 -16 -9 -22 -6 -37 17 -10 16 -22 31 -27 34 -5
4 -5 12 -1 19 5 8 13 6 29 -8 11 -10 29 -22 39 -25z m232 -7 c28 0 41 -15 20
-24 -8 -3 -15 -12 -15 -21 0 -8 -7 -15 -15 -15 -9 0 -15 10 -15 26 0 36 -30
28 -51 -13 -9 -18 -19 -30 -23 -26 -11 11 -7 29 12 49 9 10 23 33 31 49 l14
30 9 -27 c7 -20 16 -28 33 -28z m-488 24 c-3 -3 6 -17 21 -30 25 -22 26 -23 6
-24 -11 0 -29 9 -40 21 -16 17 -16 22 -4 29 17 11 26 13 17 4z m353 -20 c0 -8
-7 -14 -15 -14 -8 0 -15 9 -15 20 0 13 5 18 15 14 8 -4 15 -12 15 -20z m251 3
c-11 -11 -41 -3 -41 11 0 5 12 7 26 4 17 -3 22 -8 15 -15z m-477 -35 c-4 -9
-6 -20 -6 -24 3 -13 -36 -9 -40 4 -5 14 45 61 50 47 2 -5 0 -17 -4 -27z m1246
16 c0 -33 -15 -55 -23 -34 -8 20 -27 21 -27 1 0 -8 -7 -15 -17 -15 -14 0 -14
2 3 23 43 51 64 59 64 25z m-1690 2 c0 -5 -2 -10 -4 -10 -3 0 -8 5 -11 10 -3
6 -1 10 4 10 6 0 11 -4 11 -10z m280 -10 c0 -27 -28 -40 -57 -27 -32 14 -31
41 2 35 14 -3 28 -1 31 3 9 16 24 9 24 -11z m1650 -2 c0 -19 -2 -20 -10 -8
-13 19 -13 30 0 30 6 0 10 -10 10 -22z m-1810 -3 c0 -8 -4 -15 -9 -15 -13 0
-22 16 -14 24 11 11 23 6 23 -9z m2155 -46 c2 -17 0 -18 -13 -5 -8 8 -11 19
-7 26 9 15 18 5 20 -21z m-1635 1 c0 -5 13 -10 29 -10 17 0 33 -5 36 -10 4 -6
12 -4 22 5 19 19 47 16 51 -6 2 -10 -9 -21 -28 -29 -17 -7 -35 -21 -41 -31
-12 -23 -39 -25 -39 -4 0 8 -4 15 -10 15 -5 0 -7 7 -3 16 3 8 -4 25 -17 40
-13 13 -18 24 -12 24 7 0 12 -4 12 -10z m920 -2 c0 -5 -9 -12 -20 -15 -13 -3
-20 -14 -20 -29 0 -29 -7 -30 -39 -5 -20 15 -22 20 -10 38 9 15 23 21 51 21
21 1 38 -4 38 -10z m-1610 -18 c23 -23 25 -30 9 -30 -12 0 -38 29 -39 43 0 12
9 8 30 -13z m400 -10 c-19 -4 -26 -14 -30 -40 -6 -42 -40 -57 -40 -18 0 26 27
71 39 64 4 -3 13 -1 21 4 8 5 19 6 24 2 6 -3 0 -9 -14 -12z m607 -2 c-3 -8 -6
-5 -6 6 -1 11 2 17 5 13 3 -3 4 -12 1 -19z m1035 -7 c3 -22 0 -31 -13 -34 -14
-4 -17 2 -17 29 0 42 24 46 30 5z m58 19 c0 -5 -4 -10 -10 -10 -5 0 -10 5 -10
10 0 6 5 10 10 10 6 0 10 -4 10 -10z m93 -9 c18 -7 24 -17 25 -45 1 -20 -2
-36 -7 -36 -14 0 -33 28 -26 40 3 5 -1 13 -9 16 -9 3 -16 12 -16 20 0 17 1 17
33 5z m-2093 -11 c0 -5 -7 -10 -15 -10 -8 0 -15 5 -15 10 0 6 7 10 15 10 8 0
15 -4 15 -10z m160 3 c0 -5 -11 -9 -25 -9 -14 -1 -25 2 -25 7 0 5 11 9 25 9
14 0 25 -3 25 -7z m-490 -13 c0 -5 -9 -10 -20 -10 -11 0 -20 5 -20 10 0 6 9
10 20 10 11 0 20 -4 20 -10z m1900 -20 c0 -20 5 -30 15 -30 16 0 20 -15 7 -24
-5 -3 -16 4 -25 15 -9 10 -24 19 -32 19 -18 0 -20 21 -3 38 21 21 38 13 38
-18z m215 2 c5 -12 13 -22 17 -22 5 0 8 -13 8 -30 0 -23 -5 -30 -19 -30 -26 0
-47 26 -26 34 22 8 19 36 -4 36 -23 0 -35 15 -26 31 11 16 39 6 50 -19z
m-1693 -15 c-26 -27 -29 -67 -6 -67 8 0 12 -4 9 -10 -3 -5 1 -10 9 -10 9 0 16
-7 16 -15 0 -11 -11 -15 -36 -15 -30 0 -34 3 -25 14 8 10 6 19 -9 39 -11 14
-20 29 -20 34 0 18 41 53 62 53 l21 0 -21 -23z m-342 -9 c0 -19 -2 -20 -10 -8
-13 19 -13 30 0 30 6 0 10 -10 10 -22z m251 -26 c22 -15 25 -48 5 -55 -23 -9
-36 15 -35 63 1 25 4 36 6 25 3 -11 14 -26 24 -33z m733 16 c-3 -5 -3 -20 0
-34 6 -21 9 -23 27 -13 30 15 38 1 12 -21 -13 -10 -23 -28 -23 -39 0 -12 -2
-21 -5 -21 -12 0 -54 56 -55 73 0 9 -4 17 -10 17 -17 0 -11 22 12 47 16 17 24
20 35 12 7 -6 10 -16 7 -21z m1144 26 c18 -5 22 -13 20 -32 -4 -31 -28 -42
-28 -13 0 14 -6 21 -20 21 -11 0 -20 7 -20 15 0 16 12 18 48 9z m-2444 -10
c22 -9 10 -24 -20 -24 -15 0 -24 6 -24 15 0 16 17 19 44 9z m392 -23 c-10 -16
-36 -13 -36 3 0 17 21 27 34 16 4 -5 5 -13 2 -19z m361 17 c15 -19 23 -58 12
-58 -5 0 -9 9 -9 20 0 11 -7 20 -15 20 -8 0 -15 7 -15 15 0 18 14 20 27 3z
m2147 6 c23 -9 20 -24 -4 -24 -11 0 -20 7 -20 15 0 17 2 18 24 9z m-2724 -8
c0 -11 -19 -15 -25 -6 -3 5 1 10 9 10 9 0 16 -2 16 -4z m2405 -60 c-9 -26 -13
-56 -10 -66 8 -24 -3 -25 -33 -4 -28 19 -28 31 -1 39 16 5 19 12 15 30 -4 17
0 28 16 39 12 9 23 14 25 12 2 -2 -3 -24 -12 -50z m-2127 -5 c2 -12 -1 -28 -7
-35 -6 -6 -8 -22 -5 -33 5 -18 2 -21 -15 -16 -22 6 -29 39 -10 45 9 3 9 9 1
24 -8 16 -8 24 1 33 16 16 31 8 35 -18z m-248 -1 c0 -5 -4 -10 -10 -10 -5 0
-10 5 -10 10 0 6 5 10 10 10 6 0 10 -4 10 -10z m2220 5 c0 -4 -7 -20 -16 -36
-10 -20 -20 -29 -30 -25 -9 3 -18 6 -20 6 -10 0 -3 21 13 40 16 18 53 28 53
15z m-2063 -55 c8 -27 10 -143 4 -169 -1 -2 -12 9 -26 25 -47 54 -47 54 -26
54 30 0 37 21 14 40 -22 17 -22 61 0 88 13 16 22 6 34 -38z m2123 32 c0 -26
-11 -34 -27 -21 -10 9 -10 15 -2 25 16 19 29 17 29 -4z m-2686 -13 c-3 -5 -10
-7 -15 -3 -5 3 -7 10 -3 15 3 5 10 7 15 3 5 -3 7 -10 3 -15z m280 -12 c-9 -29
-8 -29 -28 -21 -21 8 -21 41 2 47 26 5 34 -2 26 -26z m2763 -20 l1 -52 -15 29
c-12 24 -13 33 -2 52 7 13 13 24 13 24 1 0 2 -24 3 -53z m-2574 4 c3 -12 -1
-22 -10 -25 -30 -12 -45 18 -21 42 14 14 24 8 31 -17z m2467 19 c0 -12 -28
-25 -36 -17 -9 9 6 27 22 27 8 0 14 -5 14 -10z m-2540 -14 c0 -8 -5 -18 -11
-22 -14 -8 -33 11 -25 25 10 16 36 13 36 -3z m-207 -36 c-6 -23 -33 -27 -33
-6 0 13 13 23 32 25 3 1 4 -8 1 -19z m447 -45 c0 -8 -4 -15 -10 -15 -5 0 -10
7 -10 15 0 8 5 15 10 15 6 0 10 -7 10 -15z m2300 5 c0 -5 -2 -10 -4 -10 -3 0
-8 5 -11 10 -3 6 -1 10 4 10 6 0 11 -4 11 -10z m455 0 c8 -13 -5 -13 -25 0
-13 8 -13 10 2 10 9 0 20 -4 23 -10z m-3006 -22 c7 -17 4 -28 -10 -41 -11 -10
-19 -22 -19 -27 0 -16 -28 1 -46 27 -16 25 -16 26 1 19 22 -8 46 10 38 30 -3
9 1 14 11 14 9 0 20 -10 25 -22z m80 13 c21 -13 5 -41 -24 -41 -28 0 -29 3
-15 31 12 21 18 23 39 10z m2711 -27 c0 -14 -5 -24 -11 -22 -6 2 -10 7 -10 11
1 4 1 14 1 22 0 8 5 15 10 15 6 0 10 -12 10 -26z m-2990 1 c-13 -16 -40 -20
-40 -7 0 14 12 22 33 22 16 0 17 -3 7 -15z m-550 -15 c0 -5 -4 -10 -10 -10 -5
0 -10 5 -10 10 0 6 5 10 10 10 6 0 10 -4 10 -10z m478 -15 c-8 -8 -48 8 -42
16 3 5 14 4 25 -2 12 -6 19 -12 17 -14z m-148 -6 c18 -34 1 -34 -50 -1 -5 4
21 22 32 22 4 0 12 -9 18 -21z m304 -7 c6 -11 -15 -37 -43 -51 -19 -11 -25
-11 -32 0 -6 11 -11 11 -21 1 -19 -19 -58 -15 -58 7 0 22 35 34 61 20 10 -5
24 -9 31 -8 10 0 10 2 -1 6 -10 4 -8 9 10 19 27 15 46 17 53 6z m2863 -48 c-1
-1 -19 -4 -39 -8 -31 -6 -38 -4 -38 9 0 8 8 15 18 15 13 0 14 2 3 9 -7 5 -10
14 -7 20 5 8 17 2 36 -16 16 -15 28 -28 27 -29z m-2707 26 c8 -5 11 -12 7 -16
-3 -4 -13 -2 -20 4 -8 7 -18 8 -22 4 -5 -4 -5 -1 -1 6 9 14 16 15 36 2z m-427
-21 c4 -16 3 -18 -9 -8 -7 6 -11 15 -8 20 8 13 11 11 17 -12z m-71 -31 c-12
-12 -35 -1 -27 12 3 5 13 6 21 3 10 -4 12 -9 6 -15z m3378 -5 c3 -3 -3 -10
-13 -17 -9 -7 -17 -18 -17 -25 0 -20 -26 -12 -39 13 -18 33 -7 47 32 39 18 -3
34 -8 37 -10z m-3340 -70 c0 -34 -38 -13 -53 29 -5 15 -4 15 24 0 16 -9 29
-22 29 -29z m3055 37 c4 -7 12 -7 25 0 27 14 30 13 30 -15 0 -14 -2 -25 -4
-25 -15 0 -76 32 -76 40 0 13 17 13 25 0z m159 -30 c-5 -30 -3 -40 7 -40 18 0
19 -49 2 -70 -7 -8 -19 -23 -26 -34 -11 -15 -17 -17 -35 -7 -23 12 -30 31 -12
31 6 0 10 7 10 15 0 9 6 18 14 21 22 8 26 30 15 64 -8 23 -8 34 1 45 21 26 30
16 24 -25z m-3454 20 c0 -5 -2 -10 -4 -10 -3 0 -8 5 -11 10 -3 6 -1 10 4 10 6
0 11 -4 11 -10z m3485 -40 c3 -5 1 -10 -4 -10 -6 0 -11 5 -11 10 0 6 2 10 4
10 3 0 8 -4 11 -10z m-3352 -31 c-3 -10 -9 -19 -14 -19 -5 0 -9 -7 -9 -15 0
-8 -8 -15 -17 -15 -13 0 -14 3 -5 12 7 7 12 24 12 39 0 22 4 26 19 22 13 -3
17 -11 14 -24z m77 -3 c-1 -15 -36 -56 -49 -56 -13 0 -2 62 12 72 14 8 37 -1
37 -16z m-186 -17 c-8 -14 -34 -11 -34 4 0 8 3 17 7 20 9 9 34 -13 27 -24z
m3526 11 c0 -13 -7 -20 -19 -20 -27 0 -35 17 -14 29 26 15 33 13 33 -9z
m-3662 -32 c-8 -22 -23 -18 -40 12 l-17 30 30 -16 c17 -8 29 -20 27 -26z
m3782 7 c7 -9 11 -17 9 -18 -14 -10 -90 -29 -96 -24 -3 4 1 7 10 7 10 0 17 8
17 19 0 31 39 41 60 16z m200 -5 c0 -5 -7 -10 -15 -10 -8 0 -15 5 -15 10 0 6
7 10 15 10 8 0 15 -4 15 -10z m-3823 -26 c-3 -3 -12 -4 -19 -1 -8 3 -5 6 6 6
11 1 17 -2 13 -5z m3508 -41 c-5 -40 -5 -40 -16 -15 -9 24 -5 42 11 42 5 0 7
-12 5 -27z m243 10 c-2 -10 -11 -19 -20 -21 -12 -2 -15 2 -11 17 7 25 36 28
31 4z m-3938 -7 c0 -3 -4 -8 -10 -11 -5 -3 -10 -1 -10 4 0 6 5 11 10 11 6 0
10 -2 10 -4z m3768 -14 c-2 -11 3 -26 10 -35 24 -28 3 -37 -24 -10 -16 16 -23
31 -19 44 8 25 37 25 33 1z m67 -3 c-10 -15 -25 -10 -19 6 4 8 10 12 15 9 5
-3 7 -10 4 -15z m-4111 2 c3 -5 -1 -12 -10 -15 -22 -9 -24 -8 -24 9 0 16 25
21 34 6z m369 3 c8 -3 12 -14 10 -28 -3 -16 4 -32 22 -50 22 -22 25 -30 14
-42 -7 -8 -20 -12 -30 -9 -18 6 -23 -8 -22 -62 1 -18 -25 -24 -31 -7 -3 8 1
17 9 20 20 8 19 41 -1 52 -15 8 -14 11 5 24 20 14 20 18 9 43 -10 23 -10 29 0
33 18 6 15 20 -5 25 -10 3 -13 5 -6 6 6 0 18 -1 26 -5z m84 -18 c-5 -16 -27
-19 -27 -3 0 7 7 14 15 14 9 0 14 -5 12 -11z m-247 -16 c-14 -4 -34 -8 -45 -8
-16 0 -15 2 5 8 14 4 34 8 45 8 16 0 15 -2 -5 -8z m-225 -29 c7 -12 -12 -24
-25 -16 -11 7 -4 25 10 25 5 0 11 -4 15 -9z m465 -7 c0 -8 -5 -12 -10 -9 -6 4
-8 11 -5 16 9 14 15 11 15 -7z m3800 -10 c0 -8 -7 -14 -15 -14 -15 0 -21 21
-9 33 10 9 24 -2 24 -19z m-4351 -20 c-14 -18 -24 -11 -15 11 3 9 11 13 16 10
8 -5 7 -11 -1 -21z m4148 0 c-3 -4 -14 -3 -24 0 -15 6 -15 8 -3 16 16 10 39
-4 27 -16z m-3797 8 c0 -13 -12 -22 -22 -16 -10 6 -1 24 13 24 5 0 9 -4 9 -8z
m4098 -10 c2 -7 -6 -12 -17 -12 -21 0 -27 11 -14 24 9 9 26 2 31 -12z m-3878
-63 c0 -21 -10 -40 -30 -61 -29 -29 -55 -33 -33 -6 6 7 14 32 18 56 5 32 11
42 26 42 15 0 19 -7 19 -31z m3880 -3 c0 -16 -18 -31 -27 -22 -8 8 5 36 17 36
5 0 10 -6 10 -14z m-352 -34 c2 -7 -2 -10 -12 -6 -9 3 -16 11 -16 16 0 13 23
5 28 -10z m-3943 -22 c-3 -5 -13 -10 -21 -10 -8 0 -14 5 -14 10 0 6 9 10 21
10 11 0 17 -4 14 -10z m4241 -27 c-11 -11 -17 4 -9 23 7 18 8 18 11 1 2 -10 1
-21 -2 -24z m114 3 c0 -3 -4 -8 -10 -11 -5 -3 -10 -1 -10 4 0 6 5 11 10 11 6
0 10 -2 10 -4z m50 -23 c0 -34 -12 -63 -26 -63 -19 0 -28 21 -13 31 8 4 15 14
15 21 3 26 4 28 14 28 6 0 10 -8 10 -17z m-4453 -26 c-2 -7 -12 -12 -23 -13
-10 0 -29 -5 -41 -12 -12 -7 -29 -12 -37 -12 -13 0 -12 4 4 20 11 11 20 24 20
29 0 13 42 19 63 8 10 -4 16 -14 14 -20z m76 4 c4 -18 14 -32 27 -36 27 -9 25
-31 -7 -65 -25 -27 -56 -32 -34 -7 10 13 9 92 -2 103 -10 10 -9 34 2 34 5 0
11 -13 14 -29z m4257 -8 c0 -24 -25 -9 -28 17 -3 21 -2 22 12 11 9 -7 16 -20
16 -28z m-4310 -43 c0 -5 -5 -10 -11 -10 -5 0 -7 5 -4 10 3 6 8 10 11 10 2 0
4 -4 4 -10z m4360 -4 c0 -7 -7 -19 -15 -26 -16 -13 -20 -3 -9 24 8 20 24 21
24 2z m-4390 -31 c0 -12 9 -30 20 -40 21 -19 27 -45 10 -45 -17 0 -60 51 -60
71 0 10 -5 21 -10 24 -17 10 -2 24 20 18 12 -3 20 -14 20 -28z m4310 25 c0 -5
-4 -10 -10 -10 -5 0 -10 5 -10 10 0 6 5 10 10 10 6 0 10 -4 10 -10z m40 -60
c19 -19 28 -46 13 -38 -5 3 -23 11 -40 18 -18 8 -33 20 -33 27 0 20 38 15 60
-7z m120 -20 c0 -21 -25 -4 -28 20 -4 21 -2 22 12 7 9 -8 16 -21 16 -27z
m-4370 -41 c0 -12 -7 -19 -20 -19 -12 0 -22 -9 -26 -24 -10 -41 -38 -59 -79
-52 -19 4 -35 11 -35 16 0 13 13 13 27 -1 8 -8 14 -5 22 10 7 12 9 21 5 21 -3
0 -1 7 6 15 7 8 20 15 29 15 9 0 22 14 28 31 11 27 15 30 28 19 8 -7 15 -21
15 -31z m4334 6 c-4 -8 -10 -15 -15 -15 -5 0 -9 7 -9 15 0 8 7 15 15 15 9 0
12 -6 9 -15z m343 -67 c-3 -8 -6 -5 -6 6 -1 11 2 17 5 13 3 -3 4 -12 1 -19z"/>
<path d="M19540 17645 c0 -8 5 -15 10 -15 6 0 10 7 10 15 0 8 -4 15 -10 15 -5
0 -10 -7 -10 -15z"/>
<path d="M21466 17365 c4 -8 12 -15 20 -15 8 0 11 6 8 15 -4 8 -12 15 -20 15
-8 0 -11 -6 -8 -15z"/>
<path d="M19356 17343 c-11 -11 -6 -23 9 -23 8 0 15 4 15 9 0 13 -16 22 -24
14z"/>
<path d="M19195 17322 c-1 -1 1 -17 4 -34 8 -40 31 -50 31 -14 0 22 4 26 30
26 17 0 30 5 30 13 0 8 -16 12 -46 12 -25 0 -47 -1 -49 -3z"/>
<path d="M19080 17230 c0 -5 10 -10 23 -10 18 0 19 2 7 10 -19 13 -30 13 -30
0z"/>
<path d="M18690 17190 c0 -5 7 -7 15 -4 8 4 15 8 15 10 0 2 -7 4 -15 4 -8 0
-15 -4 -15 -10z"/>
<path d="M18602 17181 c4 -13 18 -16 19 -4 0 4 -5 9 -11 12 -7 2 -11 -2 -8 -8z"/>
<path d="M18735 17151 c-7 -12 12 -24 25 -16 11 7 4 25 -10 25 -5 0 -11 -4
-15 -9z"/>
<path d="M18663 17123 c4 -3 2 -12 -4 -20 -9 -10 -8 -13 5 -13 9 0 16 8 16 20
0 11 -5 20 -12 20 -6 0 -8 -3 -5 -7z"/>
<path d="M22016 17076 c10 -8 21 -12 24 -10 5 6 -21 24 -34 24 -6 0 -1 -6 10
-14z"/>
<path d="M17560 16630 c0 -5 5 -10 10 -10 6 0 10 5 10 10 0 6 -4 10 -10 10 -5
0 -10 -4 -10 -10z"/>
<path d="M17500 16580 c0 -5 5 -10 10 -10 6 0 10 5 10 10 0 6 -4 10 -10 10 -5
0 -10 -4 -10 -10z"/>
<path d="M17406 16505 c4 -8 10 -12 15 -9 11 6 2 24 -11 24 -5 0 -7 -7 -4 -15z"/>
<path d="M17326 16483 c-9 -9 -7 -33 3 -33 12 0 22 28 12 34 -5 3 -11 3 -15
-1z"/>
<path d="M17250 16415 c0 -8 2 -15 4 -15 2 0 6 7 10 15 3 8 1 15 -4 15 -6 0
-10 -7 -10 -15z"/>
<path d="M17155 16200 c-3 -5 -1 -10 4 -10 6 0 11 5 11 10 0 6 -2 10 -4 10 -3
0 -8 -4 -11 -10z"/>
<path d="M16980 15930 c0 -5 5 -10 11 -10 5 0 7 5 4 10 -3 6 -8 10 -11 10 -2
0 -4 -4 -4 -10z"/>
<path d="M16760 15285 c0 -15 6 -25 14 -25 23 0 27 29 6 40 -17 9 -20 7 -20
-15z"/>
<path d="M14972 15143 c-18 -32 -16 -51 4 -31 9 8 14 24 12 34 -4 18 -5 17
-16 -3z"/>
<path d="M14900 15111 c0 -6 4 -13 10 -16 6 -3 7 1 4 9 -7 18 -14 21 -14 7z"/>
<path d="M16801 14044 c0 -11 3 -14 6 -6 3 7 2 16 -1 19 -3 4 -6 -2 -5 -13z"/>
<path d="M16850 13885 c27 -14 36 -13 25 4 -3 6 -16 11 -28 11 -21 -1 -21 -1
3 -15z"/>
<path d="M16610 13405 c0 -8 6 -15 14 -15 8 0 17 -6 19 -12 3 -7 6 -1 6 15 1
21 -4 27 -19 27 -11 0 -20 -7 -20 -15z"/>
<path d="M22320 16515 c0 -8 5 -15 12 -15 6 0 26 -11 44 -25 18 -14 36 -25 39
-25 4 0 14 -9 23 -20 10 -11 35 -23 57 -26 22 -3 44 -12 48 -20 5 -8 13 -12
18 -8 5 3 16 1 23 -5 7 -6 21 -8 30 -5 14 5 9 10 -21 24 -21 10 -49 29 -62 44
-14 14 -33 26 -44 26 -10 0 -31 8 -45 19 -28 19 -98 51 -113 51 -5 0 -9 -7 -9
-15z"/>
<path d="M24613 11863 c4 -20 2 -42 -4 -49 -6 -7 -8 -22 -4 -34 l6 -20 17 20
c14 18 22 20 43 11 32 -12 49 2 49 40 0 22 -8 30 -49 48 -27 11 -53 21 -57 21
-3 0 -4 -17 -1 -37z"/>
<path d="M24895 11828 c-4 -10 -4 -26 0 -35 8 -17 8 -17 12 0 3 9 3 25 0 35
-4 16 -4 16 -12 0z"/>
<path d="M24078 11244 c-14 -13 -9 -98 7 -128 18 -33 18 -36 6 -36 -5 0 -15
16 -22 34 l-13 35 -18 -52 c-24 -67 -23 -79 7 -107 14 -13 25 -27 25 -32 0
-14 -30 -9 -36 6 -3 8 -12 12 -20 9 -8 -3 -12 -8 -10 -12 3 -4 -5 -27 -16 -51
-13 -28 -21 -68 -22 -106 -1 -45 -4 -60 -14 -57 -19 8 -42 -16 -42 -44 0 -13
-7 -34 -16 -47 -12 -19 -16 -61 -18 -195 -3 -170 -4 -171 -30 -196 -24 -22
-26 -31 -25 -97 0 -40 4 -95 8 -123 7 -46 8 -48 15 -23 5 16 6 35 2 43 -7 18
72 113 95 114 9 1 28 12 43 26 14 13 33 22 41 19 8 -3 32 2 55 12 41 18 70 58
70 98 0 12 7 34 15 50 8 15 15 41 15 56 0 15 7 41 15 56 8 16 15 36 15 45 0
10 11 37 25 60 14 24 25 50 25 58 0 8 8 23 17 33 13 15 15 23 6 36 -7 12 -6
28 4 57 27 76 32 127 16 152 -12 17 -12 23 -2 23 22 0 0 13 -27 16 -15 2 -33
-4 -41 -12 -13 -12 -18 -10 -38 21 -45 65 -47 72 -30 111 23 55 20 68 -13 61
-24 -5 -31 -1 -44 26 -9 18 -18 40 -20 50 -2 11 -6 15 -10 11z"/>
<path d="M24513 10514 c-4 -12 -14 -14 -35 -10 -16 3 -27 2 -24 -2 4 -7 -17
-102 -30 -132 -4 -8 -8 -33 -9 -55 -1 -22 -5 -61 -10 -87 -6 -38 -5 -48 6 -48
17 0 59 71 59 100 0 12 5 18 10 15 6 -3 10 4 10 18 0 13 8 32 18 43 11 12 17
35 17 64 0 25 4 60 8 78 9 34 -8 47 -20 16z"/>
<path d="M21745 10331 c-2 -5 7 -13 20 -19 13 -6 26 -8 29 -4 2 4 -7 12 -20
19 -13 6 -26 8 -29 4z"/>
<path d="M21805 10200 c-11 -18 5 -31 21 -16 8 8 14 17 14 20 0 10 -28 7 -35
-4z"/>
<path d="M21885 10080 c3 -5 10 -10 16 -10 5 0 9 5 9 10 0 6 -7 10 -16 10 -8
0 -12 -4 -9 -10z"/>
<path d="M24150 10077 c0 -7 -11 -28 -25 -47 -14 -18 -23 -36 -20 -38 8 -8 55
28 55 42 0 8 5 16 12 18 14 5 4 38 -12 38 -5 0 -10 -6 -10 -13z"/>
<path d="M21856 10002 c5 -4 21 -18 37 -31 21 -20 27 -21 27 -8 0 8 -14 23
-32 31 -33 17 -48 21 -32 8z"/>
<path d="M23831 9817 c-16 -8 -25 -21 -26 -39 -1 -33 11 -35 44 -9 20 15 23
23 15 40 -8 18 -12 19 -33 8z"/>
<path d="M24415 9821 c-3 -5 -1 -12 5 -16 5 -3 10 1 10 9 0 18 -6 21 -15 7z"/>
<path d="M24350 9729 c0 -7 -7 -17 -16 -24 -9 -6 -15 -18 -12 -25 3 -10 8 -9
20 4 9 9 21 16 27 16 6 0 11 9 11 20 0 11 -7 20 -15 20 -8 0 -15 -5 -15 -11z"/>
<path d="M24273 9583 c-16 -6 -17 -33 -3 -33 11 0 26 28 19 34 -2 2 -10 1 -16
-1z"/>
<path d="M22035 9570 c3 -5 -6 -19 -20 -32 -32 -28 -33 -47 -1 -41 38 8 61 83
25 83 -6 0 -7 -4 -4 -10z"/>
<path d="M24056 9495 c-17 -25 -16 -25 4 -13 11 7 20 18 20 25 0 19 -6 16 -24
-12z"/>
<path d="M22076 9401 c-4 -7 -5 -15 -2 -18 9 -9 19 4 14 18 -4 11 -6 11 -12 0z"/>
<path d="M22045 9320 c-3 -5 -4 -14 0 -20 8 -13 35 -1 35 16 0 16 -26 19 -35
4z"/>
<path d="M22095 9310 c3 -5 8 -10 11 -10 2 0 4 5 4 10 0 6 -5 10 -11 10 -5 0
-7 -4 -4 -10z"/>
<path d="M22320 8970 c0 -5 5 -10 11 -10 5 0 7 5 4 10 -3 6 -8 10 -11 10 -2 0
-4 -4 -4 -10z"/>
<path d="M22093 8933 c-22 -8 -14 -23 13 -23 15 0 24 5 22 12 -5 14 -18 18
-35 11z"/>
<path d="M22218 8923 c7 -3 16 -2 19 1 4 3 -2 6 -13 5 -11 0 -14 -3 -6 -6z"/>
<path d="M22415 8840 c3 -5 8 -10 11 -10 2 0 4 5 4 10 0 6 -5 10 -11 10 -5 0
-7 -4 -4 -10z"/>
<path d="M22312 8713 c5 -25 28 -28 28 -4 0 12 -6 21 -16 21 -9 0 -14 -7 -12
-17z"/>
<path d="M22445 8519 c-8 -23 -1 -34 14 -24 13 8 15 45 2 45 -5 0 -13 -9 -16
-21z"/>
<path d="M22325 8436 c-26 -19 -13 -51 15 -36 20 11 27 35 11 44 -4 3 -16 -1
-26 -8z"/>
<path d="M22407 8424 c-29 -29 -33 -39 -16 -49 5 -4 21 5 35 20 24 26 26 27
39 9 8 -11 15 -14 15 -7 0 6 9 9 21 6 19 -5 20 -4 10 15 -6 11 -19 20 -29 20
-9 0 -24 2 -33 6 -10 4 -25 -3 -42 -20z"/>
<path d="M22035 8370 c3 -5 8 -10 11 -10 2 0 4 5 4 10 0 6 -5 10 -11 10 -5 0
-7 -4 -4 -10z"/>
<path d="M22080 8341 c0 -11 39 -25 47 -18 3 3 2 10 -2 16 -8 13 -45 15 -45 2z"/>
<path d="M22450 8270 c0 -5 4 -10 9 -10 6 0 13 5 16 10 3 6 -1 10 -9 10 -9 0
-16 -4 -16 -10z"/>
<path d="M21780 7716 c0 -2 7 -6 15 -10 8 -3 15 -1 15 4 0 6 -7 10 -15 10 -8
0 -15 -2 -15 -4z"/>
<path d="M21797 7683 c-11 -10 -8 -23 4 -23 7 0 18 -8 25 -17 12 -17 13 -17
20 0 9 24 -32 58 -49 40z"/>
<path d="M21524 7601 c3 -5 -1 -14 -9 -21 -21 -17 -8 -32 16 -20 23 13 25 36
3 44 -8 3 -13 2 -10 -3z"/>
<path d="M21591 7504 c0 -11 3 -14 6 -6 3 7 2 16 -1 19 -3 4 -6 -2 -5 -13z"/>
<path d="M20087 6953 c-12 -12 -7 -22 8 -17 8 4 15 10 15 15 0 11 -14 12 -23
2z"/>
<path d="M17513 6933 c-22 -8 -14 -21 19 -32 43 -15 60 2 22 22 -16 8 -35 12
-41 10z"/>
<path d="M17640 6860 c0 -5 5 -10 10 -10 6 0 10 5 10 10 0 6 -4 10 -10 10 -5
0 -10 -4 -10 -10z"/>
<path d="M17947 6816 c-8 -20 21 -29 38 -12 8 7 11 16 8 20 -12 11 -41 6 -46
-8z"/>
<path d="M18505 6739 c-10 -15 -5 -17 45 -23 36 -4 39 -4 15 3 -16 5 -23 9
-15 10 13 1 13 2 0 11 -20 13 -37 13 -45 -1z"/>
<path d="M18574 6685 c-17 -13 -17 -14 -2 -15 9 0 20 5 23 11 11 17 0 20 -21
4z"/>
<path d="M19430 6570 c0 -5 5 -10 11 -10 5 0 7 5 4 10 -3 6 -8 10 -11 10 -2 0
-4 -4 -4 -10z"/>
<path d="M16820 11680 c0 -5 5 -10 10 -10 6 0 10 5 10 10 0 6 -4 10 -10 10 -5
0 -10 -4 -10 -10z"/>
<path d="M14906 9131 c-10 -16 22 -58 75 -97 27 -20 49 -40 49 -45 0 -5 7 -9
15 -9 24 0 18 10 -52 84 -76 79 -79 81 -87 67z"/>
<path d="M15080 8936 c0 -4 9 -21 20 -36 11 -16 17 -35 14 -43 -3 -8 -1 -18 5
-22 6 -3 11 0 11 8 0 8 3 29 6 46 6 26 3 31 -13 31 -10 0 -24 5 -31 12 -7 7
-12 8 -12 4z"/>
<path d="M15871 8069 c11 -22 29 -25 29 -5 0 7 -9 16 -20 19 -17 4 -18 2 -9
-14z"/>
<path d="M23118 1258 c2 -10 -2 -20 -12 -24 -10 -4 -16 -18 -16 -36 0 -20 -8
-37 -26 -50 -16 -13 -22 -24 -16 -30 15 -15 49 0 56 25 5 17 8 19 15 8 10 -15
31 -7 31 13 0 8 -7 19 -15 26 -25 21 -19 50 10 50 18 0 25 5 25 20 0 16 -6 20
-29 18 -22 -2 -27 -6 -23 -20z"/>
<path d="M23447 1173 c-4 -3 -7 -15 -7 -25 0 -10 -4 -18 -8 -18 -5 0 -14 -12
-21 -27 -16 -34 2 -55 21 -24 7 11 23 21 35 21 28 0 53 10 53 21 0 12 -45 59
-57 59 -5 0 -13 -3 -16 -7z"/>
<path d="M23558 1135 c-6 -27 10 -33 30 -13 18 18 14 38 -7 38 -12 0 -20 -9
-23 -25z"/>
<path d="M22660 1101 c0 -12 6 -21 16 -21 9 0 14 7 12 17 -5 25 -28 28 -28 4z"/>
<path d="M23579 1079 c-11 -6 -11 -11 -2 -20 12 -12 43 -6 43 10 0 14 -25 20
-41 10z"/>
<path d="M23723 1017 c5 -73 57 -148 57 -83 0 13 7 29 15 36 22 18 19 25 -20
46 -25 13 -33 23 -29 36 4 12 0 18 -11 18 -14 0 -16 -9 -12 -53z m38 -50 c-13
-13 -26 -3 -16 12 3 6 11 8 17 5 6 -4 6 -10 -1 -17z"/>
<path d="M22721 1046 c-8 -10 -9 -16 -1 -21 13 -8 30 3 30 21 0 18 -14 18 -29
0z"/>
<path d="M22640 1021 c0 -24 43 -23 48 2 3 13 -3 17 -22 17 -19 0 -26 -5 -26
-19z"/>
<path d="M22792 1015 c1 -17 -1 -36 -5 -42 -4 -6 0 -16 8 -23 23 -19 28 7 10
55 -13 37 -14 38 -13 10z"/>
<path d="M23380 1031 c0 -25 70 -46 77 -23 3 7 -5 12 -21 12 -13 0 -28 5 -31
10 -8 12 -25 13 -25 1z"/>
<path d="M23505 1030 c3 -5 13 -10 21 -10 8 0 14 5 14 10 0 6 -9 10 -21 10
-11 0 -17 -4 -14 -10z"/>
<path d="M23640 1025 c0 -8 7 -15 15 -15 8 0 15 7 15 15 0 8 -7 15 -15 15 -8
0 -15 -7 -15 -15z"/>
<path d="M23063 1001 l-23 -19 38 -4 c24 -3 40 0 45 9 12 20 37 16 47 -9 8
-22 9 -22 9 -2 1 11 -4 25 -11 32 -18 18 -80 14 -105 -7z"/>
<path d="M22710 975 c-10 -12 -16 -13 -26 -4 -9 7 -14 7 -14 1 0 -5 14 -15 31
-22 34 -14 54 -4 43 23 -8 21 -18 21 -34 2z"/>
<path d="M23225 969 c-10 -16 0 -21 29 -13 14 3 23 10 20 15 -7 12 -41 11 -49
-2z"/>
<path d="M23503 969 c-13 -4 -23 -13 -23 -18 0 -14 67 -8 82 7 7 7 10 12 8 13
-3 0 -14 2 -25 4 -11 2 -30 -1 -42 -6z"/>
<path d="M23860 965 c-7 -9 -10 -18 -7 -21 6 -7 47 18 47 28 0 14 -27 9 -40
-7z"/>
<path d="M22880 955 c0 -35 42 -38 60 -5 9 16 6 18 -25 17 -19 -1 -35 -7 -35
-12z"/>
<path d="M22990 950 c0 -5 7 -10 15 -10 8 0 15 5 15 10 0 6 -7 10 -15 10 -8 0
-15 -4 -15 -10z"/>
<path d="M23654 939 c16 -13 33 -18 44 -14 16 6 15 8 -2 21 -11 8 -31 14 -44
14 l-25 0 27 -21z"/>
<path d="M22654 935 c-3 -8 -3 -19 1 -25 11 -18 25 -11 25 15 0 27 -17 34 -26
10z"/>
<path d="M23162 941 c2 -7 7 -12 11 -12 12 1 9 15 -3 20 -7 2 -11 -2 -8 -8z"/>
<path d="M22940 933 c0 -5 5 -15 10 -23 7 -11 12 -12 21 -3 6 6 8 16 5 22 -8
12 -36 15 -36 4z"/>
<path d="M22470 915 c0 -11 6 -14 24 -9 15 3 35 -1 53 -13 l28 -18 -16 25
c-20 30 -89 42 -89 15z"/>
<path d="M22750 905 c0 -21 17 -45 32 -45 14 0 9 17 -12 41 -19 23 -19 23 -20
4z"/>
<path d="M23396 885 c-3 -9 0 -15 9 -15 16 0 20 16 6 24 -5 3 -11 -1 -15 -9z"/>
<path d="M22422 874 c-27 -19 -28 -34 -2 -34 13 0 20 7 20 19 0 11 6 22 13 24
6 3 7 6 2 6 -6 1 -21 -6 -33 -15z"/>
<path d="M23222 880 c7 -23 36 -36 50 -22 14 14 11 18 -26 28 -21 5 -28 4 -24
-6z"/>
<path d="M23672 874 c1 -9 9 -19 16 -22 9 -3 13 2 10 14 -1 9 -9 19 -16 22 -9
3 -13 -2 -10 -14z"/>
<path d="M23800 865 c0 -8 5 -15 10 -15 6 0 10 7 10 15 0 8 -4 15 -10 15 -5 0
-10 -7 -10 -15z"/>
<path d="M23936 865 c4 -8 10 -15 15 -15 5 0 9 -9 9 -20 0 -23 13 -26 29 -6 9
11 7 15 -9 19 -11 3 -20 12 -20 21 0 9 -7 16 -15 16 -9 0 -12 -6 -9 -15z"/>
<path d="M22248 843 c-21 -24 -19 -55 4 -61 10 -2 18 -8 18 -13 0 -5 7 -9 15
-9 20 0 19 16 -1 24 -13 5 -15 15 -11 41 6 39 -2 44 -25 18z"/>
<path d="M23150 839 c0 -5 5 -7 10 -4 6 3 10 8 10 11 0 2 -4 4 -10 4 -5 0 -10
-5 -10 -11z"/>
<path d="M22670 829 c0 -5 5 -7 10 -4 6 3 10 8 10 11 0 2 -4 4 -10 4 -5 0 -10
-5 -10 -11z"/>
<path d="M22875 830 c3 -5 8 -10 11 -10 2 0 4 5 4 10 0 6 -5 10 -11 10 -5 0
-7 -4 -4 -10z"/>
<path d="M21946 785 c-8 -40 -2 -55 21 -55 11 0 14 6 9 25 -5 20 -2 27 18 37
31 14 24 28 -13 28 -25 0 -30 -5 -35 -35z"/>
<path d="M22780 810 c-12 -8 -11 -10 8 -10 12 0 22 5 22 10 0 13 -11 13 -30 0z"/>
<path d="M22090 796 c6 -8 19 -12 27 -9 14 6 14 8 -3 14 -30 12 -37 10 -24 -5z"/>
<path d="M22550 801 c1 -20 17 -26 38 -15 23 11 23 12 -7 16 -17 3 -31 2 -31
-1z"/>
<path d="M23900 786 c17 -15 27 -19 32 -12 9 13 -18 36 -41 36 -11 0 -9 -6 9
-24z"/>
<path d="M22387 794 c-11 -11 -8 -54 3 -54 6 0 13 6 16 14 7 17 -9 50 -19 40z"/>
<path d="M23005 790 c3 -5 8 -10 11 -10 2 0 4 5 4 10 0 6 -5 10 -11 10 -5 0
-7 -4 -4 -10z"/>
<path d="M23830 785 c-10 -12 -9 -16 4 -21 18 -7 49 13 40 27 -8 14 -30 11
-44 -6z"/>
<path d="M21868 771 c-16 -9 -28 -19 -28 -23 0 -14 58 -8 63 5 10 26 -7 34
-35 18z"/>
<path d="M22152 764 c2 -11 11 -20 22 -22 13 -3 17 1 14 14 -2 11 -11 20 -22
22 -13 3 -17 -1 -14 -14z"/>
<path d="M22027 763 c-10 -10 -8 -43 2 -43 6 0 13 5 16 11 5 7 16 2 31 -12 34
-32 40 -18 7 20 -27 30 -43 38 -56 24z"/>
<path d="M22750 750 c0 -5 6 -10 14 -10 8 0 18 5 21 10 3 6 -3 10 -14 10 -12
0 -21 -4 -21 -10z"/>
<path d="M23720 751 c0 -10 30 -24 37 -17 3 3 2 9 -2 15 -8 13 -35 15 -35 2z"/>
<path d="M24240 740 c0 -11 -5 -20 -12 -20 -20 0 2 -14 27 -17 28 -4 39 9 30
37 -8 27 -45 27 -45 0z"/>
<path d="M21430 730 c-8 -11 -20 -20 -27 -20 -19 0 -16 -24 5 -43 26 -24 33
-21 26 8 -5 20 -1 27 20 36 15 7 25 17 23 23 -6 19 -32 17 -47 -4z"/>
<path d="M21706 735 c-15 -8 -35 -15 -42 -15 -8 0 -14 -11 -14 -26 0 -23 3
-25 27 -19 15 3 32 12 37 20 21 26 50 22 64 -9 9 -21 16 -26 23 -19 22 22 -15
83 -49 83 -9 0 -30 -7 -46 -15z"/>
<path d="M22820 740 c0 -5 5 -10 10 -10 6 0 10 5 10 10 0 6 -4 10 -10 10 -5 0
-10 -4 -10 -10z"/>
<path d="M23636 743 c-11 -11 -6 -23 9 -23 8 0 15 4 15 9 0 13 -16 22 -24 14z"/>
<path d="M22578 723 c-10 -2 -18 -12 -18 -20 0 -14 3 -14 20 2 17 15 26 28 18
24 -2 -1 -11 -3 -20 -6z"/>
<path d="M21885 712 c-10 -10 -5 -19 18 -29 19 -9 26 -7 44 12 l20 24 -38 -1
c-21 0 -40 -3 -44 -6z"/>
<path d="M23390 710 c0 -5 7 -10 15 -10 8 0 15 5 15 10 0 6 -7 10 -15 10 -8 0
-15 -4 -15 -10z"/>
<path d="M24151 688 c-6 -17 -9 -33 -7 -36 8 -7 36 25 36 42 0 29 -18 26 -29
-6z"/>
<path d="M22030 670 c6 -11 16 -20 22 -20 6 0 3 9 -7 20 -10 11 -20 20 -22 20
-2 0 1 -9 7 -20z"/>
<path d="M21562 668 c5 -15 28 -18 29 -3 0 6 -7 12 -17 13 -10 3 -15 -1 -12
-10z"/>
<path d="M22127 674 c-9 -10 2 -24 19 -24 8 0 14 7 14 15 0 15 -21 21 -33 9z"/>
<path d="M22240 670 c0 -5 7 -10 15 -10 8 0 15 5 15 10 0 6 -7 10 -15 10 -8 0
-15 -4 -15 -10z"/>
<path d="M21672 652 c-27 -24 -14 -47 21 -38 25 6 42 30 31 47 -8 14 -29 11
-52 -9z"/>
<path d="M22705 650 c-4 -6 -2 -17 4 -23 15 -15 25 -2 13 19 -7 12 -11 13 -17
4z"/>
<path d="M21453 644 c-8 -4 -5 -12 9 -26 15 -15 19 -28 14 -49 -7 -37 2 -59
24 -59 16 0 18 8 17 64 -2 56 -5 66 -22 70 -23 6 -25 6 -42 0z"/>
<path d="M22990 641 c0 -6 5 -13 10 -16 6 -3 10 1 10 9 0 9 -4 16 -10 16 -5 0
-10 -4 -10 -9z"/>
<path d="M21562 615 c-16 -35 -15 -55 3 -55 23 0 35 32 21 58 l-12 23 -12 -26z"/>
<path d="M21905 630 c3 -5 8 -10 11 -10 2 0 4 5 4 10 0 6 -5 10 -11 10 -5 0
-7 -4 -4 -10z"/>
<path d="M22030 618 c0 -15 9 -27 25 -35 28 -12 33 -2 10 17 -8 7 -15 19 -15
26 0 8 -4 14 -10 14 -5 0 -10 -10 -10 -22z"/>
<path d="M24263 618 c-8 -9 -9 -19 -3 -28 5 -8 7 -23 4 -32 -3 -10 -1 -18 5
-18 15 0 25 48 14 72 -7 17 -11 18 -20 6z"/>
<path d="M22380 610 c0 -5 5 -10 10 -10 6 0 10 5 10 10 0 6 -4 10 -10 10 -5 0
-10 -4 -10 -10z"/>
<path d="M22538 613 c7 -3 16 -2 19 1 4 3 -2 6 -13 5 -11 0 -14 -3 -6 -6z"/>
<path d="M23890 610 c0 -5 5 -10 10 -10 6 0 10 5 10 10 0 6 -4 10 -10 10 -5 0
-10 -4 -10 -10z"/>
<path d="M21790 601 c0 -12 61 -43 69 -35 8 8 -37 44 -55 44 -8 0 -14 -4 -14
-9z"/>
<path d="M22106 601 c-7 -11 22 -23 35 -15 5 3 7 10 4 15 -8 12 -32 12 -39 0z"/>
<path d="M23728 593 c6 -2 18 -2 25 0 6 3 1 5 -13 5 -14 0 -19 -2 -12 -5z"/>
<path d="M21722 573 c2 -10 11 -19 21 -21 16 -3 17 -1 7 17 -13 25 -33 28 -28
4z"/>
<path d="M22225 580 c-4 -7 -1 -19 7 -27 14 -13 16 -13 21 0 7 20 -18 43 -28
27z"/>
<path d="M24176 575 c-3 -9 1 -18 10 -22 19 -7 28 2 21 22 -8 19 -23 19 -31 0z"/>
<path d="M24100 570 c0 -5 5 -10 10 -10 6 0 10 5 10 10 0 6 -4 10 -10 10 -5 0
-10 -4 -10 -10z"/>
<path d="M21649 524 c8 -30 31 -45 31 -20 0 9 7 16 15 16 8 0 15 5 15 10 0 6
-6 10 -12 10 -7 0 -23 3 -35 6 -20 5 -21 3 -14 -22z"/>
<path d="M23913 525 c-8 -23 0 -24 20 -3 14 15 15 18 2 18 -9 0 -18 -7 -22
-15z"/>
<path d="M24353 527 c-3 -5 -2 -19 1 -32 l6 -23 39 21 c40 22 60 20 45 -5 -5
-7 -9 -30 -10 -50 -2 -32 0 -36 14 -27 10 5 29 13 44 19 32 11 29 30 -8 54
-14 10 -21 22 -18 31 4 9 -2 16 -18 19 -32 7 -89 3 -95 -7z"/>
<path d="M21916 521 c-4 -5 3 -7 14 -4 23 6 26 13 6 13 -8 0 -17 -4 -20 -9z"/>
<path d="M23737 514 c-8 -8 1 -24 14 -24 5 0 9 7 9 15 0 15 -12 20 -23 9z"/>
<path d="M24281 487 c-16 -16 -14 -37 4 -31 9 4 15 1 15 -7 0 -7 7 -20 15 -30
14 -15 14 -18 0 -32 -16 -17 -21 -47 -6 -47 16 0 28 25 29 58 1 42 -40 106
-57 89z"/>
<path d="M24100 481 c0 -6 5 -13 10 -16 6 -3 10 1 10 9 0 9 -4 16 -10 16 -5 0
-10 -4 -10 -9z"/>
<path d="M21545 470 c-10 -16 4 -30 30 -30 24 0 24 1 8 20 -19 22 -29 25 -38
10z"/>
<path d="M21420 451 c0 -6 5 -13 10 -16 6 -3 10 1 10 9 0 9 -4 16 -10 16 -5 0
-10 -4 -10 -9z"/>
<path d="M22065 450 c-3 -5 -1 -10 4 -10 6 0 11 5 11 10 0 6 -2 10 -4 10 -3 0
-8 -4 -11 -10z"/>
<path d="M21344 429 c-7 -12 15 -59 27 -59 3 0 9 8 12 19 5 22 -28 57 -39 40z"/>
<path d="M21810 425 c0 -8 7 -15 15 -15 8 0 15 4 15 9 0 5 -7 11 -15 15 -9 3
-15 0 -15 -9z"/>
<path d="M21605 410 c-3 -5 -1 -10 4 -10 6 0 11 5 11 10 0 6 -2 10 -4 10 -3 0
-8 -4 -11 -10z"/>
<path d="M21645 378 c4 -13 7 -31 6 -40 0 -11 8 -18 20 -18 22 0 23 6 8 49
-13 36 -46 45 -34 9z"/>
<path d="M24467 385 c-4 -8 -2 -17 3 -20 6 -4 10 3 10 14 0 25 -6 27 -13 6z"/>
<path d="M21188 378 c-9 -23 3 -38 28 -38 29 0 32 25 5 40 -25 13 -28 13 -33
-2z"/>
<path d="M21440 374 c0 -8 5 -12 10 -9 6 3 10 10 10 16 0 5 -4 9 -10 9 -5 0
-10 -7 -10 -16z"/>
<path d="M22080 370 c0 -5 5 -10 10 -10 6 0 10 5 10 10 0 6 -4 10 -10 10 -5 0
-10 -4 -10 -10z"/>
<path d="M24394 363 c3 -8 6 -17 6 -19 0 -2 7 -4 15 -4 23 0 18 27 -6 33 -15
4 -19 2 -15 -10z"/>
<path d="M20925 340 c-31 -17 -42 -43 -44 -97 -1 -34 15 -43 36 -22 8 8 8 20
3 35 -10 27 -1 31 31 14 27 -15 35 10 18 53 l-14 34 -30 -17z"/>
<path d="M20837 331 c-6 -22 0 -31 20 -31 9 0 13 8 11 22 -4 28 -24 34 -31 9z"/>
<path d="M24537 333 c-9 -9 -9 -43 1 -44 4 0 17 -2 30 -3 18 -2 21 1 16 18 -9
29 -33 44 -47 29z"/>
<path d="M24860 330 c0 -5 5 -10 11 -10 5 0 7 5 4 10 -3 6 -8 10 -11 10 -2 0
-4 -4 -4 -10z"/>
<path d="M21380 321 c0 -6 5 -13 10 -16 6 -3 10 1 10 9 0 9 -4 16 -10 16 -5 0
-10 -4 -10 -9z"/>
<path d="M21231 306 c-9 -10 -9 -16 -1 -21 17 -10 37 12 24 25 -8 8 -15 6 -23
-4z"/>
<path d="M24826 296 c-19 -30 -29 -32 -50 -11 -10 10 -17 12 -21 4 -4 -6 3
-20 15 -31 20 -18 22 -28 17 -75 -3 -30 -2 -53 4 -53 5 0 9 18 9 40 0 32 4 40
18 40 13 0 21 13 30 47 15 55 3 76 -22 39z"/>
<path d="M24305 290 c3 -5 8 -10 11 -10 2 0 4 5 4 10 0 6 -5 10 -11 10 -5 0
-7 -4 -4 -10z"/>
<path d="M24445 290 c3 -5 8 -10 11 -10 2 0 4 5 4 10 0 6 -5 10 -11 10 -5 0
-7 -4 -4 -10z"/>
<path d="M21299 278 c0 -2 -2 -13 -3 -25 -2 -19 1 -22 23 -16 36 8 39 13 17
29 -18 13 -35 18 -37 12z"/>
<path d="M24390 265 c0 -18 19 -40 26 -32 4 4 0 15 -9 24 -9 10 -17 13 -17 8z"/>
<path d="M24645 260 c3 -5 8 -10 11 -10 2 0 4 5 4 10 0 6 -5 10 -11 10 -5 0
-7 -4 -4 -10z"/>
<path d="M24170 250 c0 -5 5 -10 10 -10 6 0 10 5 10 10 0 6 -4 10 -10 10 -5 0
-10 -4 -10 -10z"/>
<path d="M24714 246 c-6 -17 11 -46 27 -46 14 0 10 30 -6 46 -13 14 -16 14
-21 0z"/>
<path d="M24574 225 c18 -26 41 -26 42 1 1 17 -4 21 -27 20 -26 -1 -27 -3 -15
-21z"/>
<path d="M21232 219 c-16 -24 -12 -32 12 -23 9 3 16 15 16 25 0 25 -12 24 -28
-2z"/>
<path d="M21400 229 c0 -5 5 -7 10 -4 6 3 10 8 10 11 0 2 -4 4 -10 4 -5 0 -10
-5 -10 -11z"/>
<path d="M20978 212 c-10 -2 -18 -8 -18 -13 0 -16 22 -53 36 -62 8 -4 14 -13
14 -20 2 -50 111 -98 118 -51 5 32 -28 40 -49 13 -14 -19 -17 -20 -22 -4 -4 9
-7 25 -7 34 0 10 -12 23 -26 29 -14 7 -23 16 -20 20 11 18 -9 58 -26 54z"/>
<path d="M24440 196 c0 -8 4 -17 9 -20 11 -7 33 18 24 27 -12 12 -33 7 -33 -7z"/>
<path d="M24276 165 c-4 -12 -1 -16 11 -13 18 3 21 20 5 26 -5 1 -12 -4 -16
-13z"/>
<path d="M21217 163 c-15 -27 -16 -65 -3 -78 8 -9 17 -11 20 -6 4 5 0 11 -6
14 -10 4 -11 7 0 18 6 7 12 21 12 30 0 19 -16 34 -23 22z"/>
<path d="M24670 110 c0 -5 10 -10 23 -10 18 0 19 2 7 10 -19 13 -30 13 -30 0z"/>
<path d="M21396 95 c-8 -22 9 -44 24 -29 7 7 6 16 -3 28 -13 18 -14 18 -21 1z"/>
<path d="M20950 70 c-6 -12 -10 -31 -8 -43 2 -18 11 -23 41 -25 47 -4 50 17 7
59 -29 29 -29 29 -40 9z"/>
<path d="M24530 70 c0 -5 5 -10 10 -10 6 0 10 5 10 10 0 6 -4 10 -10 10 -5 0
-10 -4 -10 -10z"/>
<path d="M21191 26 c-7 -8 -8 -17 -3 -20 6 -3 13 1 16 10 9 23 2 28 -13 10z"/>
<path d="M20810 10 c-11 -7 4 -10 48 -10 35 0 61 4 58 8 -7 12 -88 14 -106 2z"/>
</g>
</svg>
